<svg width="30" height="30" viewBox="0 0 30 30" fill="none" xmlns="http://www.w3.org/2000/svg">
<path fill-rule="evenodd" clip-rule="evenodd" d="M23.1629 6.83709C23.529 7.2032 23.529 7.79677 23.1629 8.16292L8.16292 23.1629C7.79677 23.529 7.2032 23.529 6.83709 23.1629C6.47097 22.7968 6.47097 22.2032 6.83709 21.8371L21.8371 6.83709C22.2032 6.47097 22.7968 6.47097 23.1629 6.83709Z" fill="black"/>
<path fill-rule="evenodd" clip-rule="evenodd" d="M6.83709 6.83709C7.2032 6.47097 7.79677 6.47097 8.16292 6.83709L23.1629 21.8371C23.529 22.2032 23.529 22.7968 23.1629 23.1629C22.7968 23.529 22.2032 23.529 21.8371 23.1629L6.83709 8.16292C6.47097 7.79677 6.47097 7.2032 6.83709 6.83709Z" fill="black"/>
</svg>
