<svg width="16" height="16" viewBox="0 0 16 16" fill="none" xmlns="http://www.w3.org/2000/svg">
<path fill-rule="evenodd" clip-rule="evenodd" d="M6.28232 6.83455C6.55709 6.80708 6.8021 7.00755 6.82956 7.28235L7.1629 10.6157C7.19043 10.8904 6.9899 11.1355 6.71516 11.1629C6.44038 11.1904 6.19536 10.9899 6.16788 10.7151L5.83455 7.38181C5.80707 7.10708 6.00754 6.86201 6.28232 6.83455Z" fill="white"/>
<path fill-rule="evenodd" clip-rule="evenodd" d="M9.71515 6.83455C9.98988 6.86201 10.1903 7.10708 10.1629 7.38181L9.82955 10.7151C9.80208 10.9899 9.55708 11.1904 9.28228 11.1629C9.00755 11.1355 8.80708 10.8904 8.83455 10.6157L9.16788 7.28235C9.19535 7.00755 9.44035 6.80708 9.71515 6.83455Z" fill="white"/>
<path fill-rule="evenodd" clip-rule="evenodd" d="M6.74855 0.832044H9.00288C9.14715 0.831951 9.27282 0.831871 9.39148 0.850824C9.86035 0.925691 10.2661 1.21813 10.4854 1.63926C10.5409 1.74585 10.5806 1.8651 10.6261 2.00199L10.7005 2.22526C10.7131 2.26305 10.7167 2.27375 10.7198 2.28218C10.8365 2.60492 11.1391 2.82309 11.4823 2.83179C11.4913 2.83202 11.5024 2.83206 11.5424 2.83206H13.5424C13.8186 2.83206 14.0424 3.05591 14.0424 3.33206C14.0424 3.6082 13.8186 3.83206 13.5424 3.83206H2.20898C1.93284 3.83206 1.70898 3.6082 1.70898 3.33206C1.70898 3.05591 1.93284 2.83206 2.20898 2.83206H4.20904C4.24907 2.83206 4.26012 2.83202 4.26914 2.83179C4.61224 2.82309 4.91492 2.60494 5.03167 2.28219C5.03474 2.2737 5.03827 2.26324 5.05093 2.22526L5.12533 2.002C5.17086 1.86512 5.21054 1.74585 5.26604 1.63926C5.48534 1.21813 5.89107 0.925691 6.35994 0.850824C6.47862 0.831871 6.6043 0.831951 6.74855 0.832044ZM5.88108 2.83206C5.91542 2.76471 5.94586 2.69472 5.97204 2.62235C5.97998 2.60037 5.98778 2.57698 5.9978 2.54692L6.06434 2.34731C6.12512 2.16497 6.13911 2.12778 6.15299 2.10112C6.22609 1.96074 6.36134 1.86327 6.51762 1.83831C6.54731 1.83357 6.587 1.83206 6.77922 1.83206H8.97222C9.16442 1.83206 9.20408 1.83357 9.23382 1.83831C9.39008 1.86327 9.52535 1.96074 9.59842 2.10112C9.61228 2.12778 9.62628 2.16496 9.68708 2.34731L9.75355 2.5468L9.77942 2.62236C9.80555 2.69473 9.83602 2.76471 9.87035 2.83206H5.88108Z" fill="white"/>
<path fill-rule="evenodd" clip-rule="evenodd" d="M3.41012 5.16519C3.68565 5.14682 3.9239 5.35529 3.94227 5.63082L4.2489 10.2302C4.3088 11.1288 4.35149 11.754 4.4452 12.2244C4.5361 12.6807 4.66299 12.9223 4.84527 13.0928C5.02754 13.2633 5.27698 13.3739 5.73831 13.4342C6.21391 13.4964 6.8406 13.4974 7.74113 13.4974H8.25673C9.15727 13.4974 9.78393 13.4964 10.2595 13.4342C10.7209 13.3739 10.9703 13.2633 11.1526 13.0928C11.3349 12.9223 11.4618 12.6807 11.5527 12.2244C11.6464 11.754 11.6891 11.1288 11.749 10.2302L12.0556 5.63082C12.0739 5.35529 12.3122 5.14682 12.5877 5.16519C12.8633 5.18356 13.0717 5.42181 13.0534 5.69734L12.7444 10.3318C12.6874 11.187 12.6414 11.8777 12.5334 12.4198C12.4211 12.9833 12.2302 13.4541 11.8358 13.823C11.4414 14.192 10.959 14.3512 10.3893 14.4257C9.8412 14.4974 9.14893 14.4974 8.29187 14.4974H7.706C6.84893 14.4974 6.15663 14.4974 5.60861 14.4257C5.03884 14.3512 4.55647 14.192 4.16208 13.823C3.76768 13.4541 3.57673 12.9833 3.46447 12.4198C3.35649 11.8777 3.31045 11.187 3.25345 10.3318L2.94449 5.69734C2.92611 5.42181 3.13459 5.18356 3.41012 5.16519Z" fill="white"/>
</svg>
