<svg width="35" height="35" viewBox="0 0 35 35" fill="none" xmlns="http://www.w3.org/2000/svg">
<g clip-path="url(#clip0_1063_3536)">
<path d="M20.4307 6.82222L20.3416 6.91811L20.4575 6.97886C22.4986 8.04837 23.8941 10.1875 23.8941 12.6465V13.3301C23.8941 13.8411 23.4798 14.2555 22.9688 14.2555H12.0312C11.5202 14.2555 11.1059 13.8411 11.1059 13.3301V12.6465C11.1059 10.1875 12.5014 8.04837 14.5425 6.97886L14.6584 6.91811L14.5693 6.82222C13.9053 6.10748 13.4984 5.15138 13.4984 4.10156C13.4984 1.89519 15.2936 0.1 17.5 0.1C19.7064 0.1 21.5016 1.89519 21.5016 4.10156C21.5016 5.15138 21.0947 6.10748 20.4307 6.82222ZM21.9304 12.4047H22.0383L22.0301 12.2971C21.851 9.95439 19.8878 8.10312 17.5 8.10312C15.1122 8.10312 13.149 9.95439 12.9699 12.2971L12.9617 12.4047H13.0696H21.9304ZM19.6508 4.10156C19.6508 2.91553 18.686 1.95078 17.5 1.95078C16.314 1.95078 15.3492 2.91553 15.3492 4.10156C15.3492 5.28759 16.314 6.25234 17.5 6.25234C18.686 6.25234 19.6508 5.28759 19.6508 4.10156Z" fill="#F6821F" stroke="white" stroke-width="0.2"/>
<path d="M28.7962 17.4866L28.9477 17.5776V17.4009V10.7324C28.9477 8.71452 30.5895 7.07266 32.6074 7.07266C33.8715 7.07266 34.9 8.1012 34.9 9.36523V19.8236C34.9 22.5881 33.6487 25.1464 31.4666 26.8437L30.5017 27.5942C29.3871 28.461 28.7477 29.7686 28.7477 31.1805V33.9746C28.7477 34.4857 28.3333 34.9 27.8223 34.9H19.6191C19.1081 34.9 18.6938 34.4857 18.6938 33.9746V24.8273C18.6938 22.5504 19.9189 20.4284 21.8908 19.2898L25.0766 17.4506L25.0266 17.364L25.0766 17.4506C26.2687 16.7623 27.6916 16.823 28.7962 17.4866ZM26.7969 33.0492H26.8969V32.9492V31.1805C26.8969 29.1929 27.7965 27.3536 29.3654 26.1333L30.3303 25.3828C32.058 24.039 33.0492 22.0124 33.0492 19.8236V9.36523C33.0492 9.12154 32.8511 8.92344 32.6074 8.92344C31.6099 8.92344 30.7984 9.73486 30.7984 10.7324V19.3019C30.7984 20.3616 30.2282 21.3494 29.3104 21.8793L26.2342 23.6553L26.2842 23.7419L26.2342 23.6553C25.7916 23.9108 25.2257 23.7593 24.9701 23.3166L24.8835 23.3666L24.9701 23.3166C24.7145 22.874 24.8661 22.3081 25.3088 22.0525L25.2588 21.9659L25.3088 22.0525L28.3114 20.3189L28.3114 20.3189C28.4495 20.2392 28.4998 20.1161 28.5173 20.0506C28.5348 19.9853 28.5528 19.8536 28.4731 19.7155L28.3865 19.7655L28.4731 19.7155C28.2316 19.2971 27.8411 18.9976 27.3746 18.8726L27.3487 18.9692L27.3746 18.8726C26.9082 18.7476 26.4203 18.8118 26.002 19.0533L26.052 19.1399L26.002 19.0533L22.8162 20.8926L22.8662 20.9792L22.8162 20.8926C21.4149 21.7017 20.5445 23.2092 20.5445 24.8273V32.9492V33.0492H20.6445H26.7969Z" fill="#F6821F" stroke="white" stroke-width="0.2"/>
<path d="M6.05234 17.3981V17.5748L6.20383 17.4839C6.49391 17.3097 6.81027 17.175 7.1464 17.0849C8.0908 16.8318 9.07672 16.9617 9.92349 17.4506L13.1092 19.2898C15.0811 20.4283 16.3062 22.5504 16.3062 24.8273V33.9746C16.3062 34.4857 15.8919 34.9 15.3809 34.9H7.17773C6.66667 34.9 6.25234 34.4857 6.25234 33.9746V31.1805C6.25234 29.7686 5.61288 28.4611 4.49833 27.5942L3.53344 26.8437L3.47204 26.9227L3.53344 26.8437C1.35129 25.1465 0.1 22.5881 0.1 19.8236V9.36523C0.1 8.1012 1.12854 7.07266 2.39258 7.07266C4.41048 7.07266 6.05234 8.71452 6.05234 10.7324V17.3981ZM8.10312 32.9492V33.0492H8.20312H14.3555H14.3555H14.4555V32.9492V24.8274C14.4555 23.2093 13.5852 21.7019 12.1839 20.8928L8.99818 19.0535C8.57988 18.812 8.09198 18.7477 7.62545 18.8727C7.15884 18.9977 6.76847 19.2973 6.52702 19.7156C6.44729 19.8536 6.46535 19.9854 6.48286 20.0508C6.50036 20.1162 6.55059 20.2393 6.68869 20.319L9.69121 22.0525C10.1338 22.308 10.2854 22.874 10.0299 23.3166C9.77436 23.7592 9.20839 23.9109 8.76584 23.6553L8.76582 23.6553L5.68965 21.8793C4.7719 21.3494 4.20156 20.3616 4.20156 19.3019V10.7324C4.20156 9.73486 3.39014 8.92344 2.39258 8.92344C2.14888 8.92344 1.95078 9.12154 1.95078 9.36523V19.8236C1.95078 22.0124 2.94195 24.039 4.66969 25.3828L4.73108 25.3039L4.66969 25.3828L5.63458 26.1333C7.20355 27.3536 8.10312 29.1929 8.10312 31.1805V32.9492Z" fill="#F6821F" stroke="white" stroke-width="0.2"/>
</g>
<defs>
<clipPath id="clip0_1063_3536">
<rect width="35" height="35" fill="white"/>
</clipPath>
</defs>
</svg>
