<svg width="35" height="35" viewBox="0 0 35 35" fill="none" xmlns="http://www.w3.org/2000/svg">
<path d="M9.50391 13.7101C8.96031 13.7101 8.51953 14.1509 8.51953 14.6945C8.51953 15.2381 8.96031 15.6789 9.50391 15.6789H20.0586C20.6022 15.6789 21.043 15.2381 21.043 14.6945C21.043 14.1509 20.6022 13.7101 20.0586 13.7101H9.50391Z" fill="#F6821F"/>
<path d="M14.2497 19.2981H9.50391C8.96031 19.2981 8.51953 19.7389 8.51953 20.2825C8.51953 20.8261 8.96031 21.2668 9.50391 21.2668H14.2497C14.7933 21.2668 15.2341 20.8261 15.2341 20.2825C15.2341 19.7389 14.7933 19.2981 14.2497 19.2981Z" fill="#F6821F"/>
<path d="M14.104 31.8281H6.61184C5.00074 31.8281 3.69152 30.5134 3.69152 28.8969V8.95781C3.69152 7.34125 5.00074 6.02656 6.61184 6.02656H8.64512V6.27375C8.64512 7.70984 9.81324 8.87688 11.2493 8.87688H20.6556C22.0917 8.87688 23.2598 7.70984 23.2598 6.27375V6.02656H25.2832C26.9206 6.02656 28.2025 7.31391 28.2025 8.95781V14.5687C28.2025 15.1123 28.6432 15.5531 29.1868 15.5531C29.7304 15.5531 30.1712 15.1123 30.1712 14.5687V8.95781C30.1712 6.25625 27.9782 4.05781 25.2821 4.05781H23.2587V3.80625C23.2587 2.37016 22.0906 1.20312 20.6545 1.20312H11.2482C9.81215 1.20312 8.64402 2.37016 8.64402 3.80625V4.05781H6.61184C3.91574 4.05781 1.72168 6.25625 1.72168 8.95781V28.8969C1.72168 31.5984 3.91574 33.7969 6.61184 33.7969H14.104C14.6476 33.7969 15.0884 33.3561 15.0884 32.8125C15.0884 32.2689 14.6476 31.8281 14.104 31.8281ZM10.615 3.80625C10.615 3.45625 10.8993 3.17188 11.2493 3.17188H20.6556C21.0056 3.17188 21.29 3.45625 21.29 3.80625V6.27266C21.29 6.62266 21.0056 6.90703 20.6556 6.90703H11.2493C10.8993 6.90703 10.615 6.62266 10.615 6.27266V3.80625Z" fill="#F6821F"/>
<path d="M32.2329 18.9853C30.8853 17.6367 28.5327 17.6356 27.1841 18.9853L18.4571 27.7123C18.176 27.9934 17.9922 28.35 17.9255 28.7426L17.4464 31.5744C17.3447 32.1814 17.5449 32.8048 17.9802 33.2391C18.34 33.5989 18.8268 33.7958 19.3266 33.7958C19.4327 33.7958 19.5377 33.787 19.6427 33.7695L22.4733 33.2916C22.866 33.2248 23.2225 33.0411 23.5036 32.76L32.2307 24.033C33.623 22.6417 33.623 20.3776 32.2329 18.9853ZM22.1463 31.3512L19.3889 31.9014L19.8505 29.1047L26.1057 22.8495L28.3708 25.1147L22.1463 31.3512ZM30.8394 22.6406L29.761 23.7212L27.4969 21.4572L28.5764 20.3776C28.8783 20.0758 29.2808 19.9084 29.7074 19.9084C30.1361 19.9084 30.5375 20.0747 30.8394 20.3776C31.4639 21.0022 31.4639 22.0161 30.8394 22.6406Z" fill="#F6821F"/>
</svg>
