<svg width="48" height="48" viewBox="0 0 48 48" fill="none" xmlns="http://www.w3.org/2000/svg">
<path d="M24.0059 2.99902C15.7394 2.99902 9.00293 9.73863 9.00293 18.0051C9.00293 23.898 12.5576 30.3596 15.999 35.5217C19.4404 40.6837 22.8867 44.501 22.8867 44.501C23.0274 44.6568 23.1991 44.7812 23.3909 44.8664C23.5827 44.9516 23.7902 44.9959 24 44.9959C24.2098 44.9959 24.4173 44.9516 24.6091 44.8664C24.8009 44.7812 24.9726 44.6568 25.1133 44.501C25.1133 44.501 28.5596 40.6837 32.001 35.5217C35.4424 30.3596 38.9971 23.898 38.9971 18.0051C38.9971 9.73863 32.2724 2.99902 24.0059 2.99902ZM24.0059 5.99907C30.651 5.99907 35.9971 11.3599 35.9971 18.0051C35.9971 22.6123 32.8164 28.8974 29.5078 33.8604C26.756 37.988 24.8541 40.0737 24.0059 41.047C23.1595 40.0759 21.2545 37.9906 18.501 33.8604C15.1924 28.8974 12.0029 22.6123 12.0029 18.0051C12.0029 11.3599 17.3607 5.99907 24.0059 5.99907ZM24.0059 12.0023C20.7099 12.0023 18.0029 14.7092 18.0029 18.0051C18.0029 21.301 20.7099 24.0049 24.0059 24.0049C27.3018 24.0049 30.0059 21.301 30.0059 18.0051C30.0059 14.7092 27.3018 12.0023 24.0059 12.0023ZM24.0059 15.002C25.6805 15.002 27.0059 16.3305 27.0059 18.0051C27.0059 19.6797 25.6805 21.0049 24.0059 21.0048C22.3312 21.0049 21.0059 19.6797 21.0059 18.0051C21.0059 16.3305 22.3312 15.002 24.0059 15.002Z" fill="white"/>
</svg>
