<svg width="445" height="216" viewBox="0 0 445 216" fill="none" xmlns="http://www.w3.org/2000/svg">
<path d="M28.5399 57.89C17.2999 57.89 8.18994 67 8.18994 78.23V187.45C8.18994 198.69 17.2999 207.8 28.5399 207.8C39.7799 207.8 48.8899 198.69 48.8899 187.45V78.23C48.8799 67 39.7699 57.89 28.5399 57.89Z" fill="#13499F"/>
<path d="M137.75 167.1H48.8799C26.4099 167.1 8.18994 148.88 8.18994 126.41V180.94V187.44C8.18994 198.68 17.2999 207.79 28.5399 207.79H137.76C149 207.79 158.11 198.68 158.11 187.44C158.1 176.21 148.99 167.1 137.75 167.1Z" fill="#007AC2"/>
<path d="M76.7499 8.21H28.5399C17.2999 8.21 8.18994 17.32 8.18994 28.56C8.18994 39.8 17.2999 48.91 28.5399 48.91H117.44C117.44 26.43 99.2199 8.21 76.7499 8.21Z" fill="#F58220"/>
<path d="M117.44 48.9V137.8C117.44 149.04 126.55 158.15 137.79 158.15C149.03 158.15 158.14 149.04 158.14 137.8V89.59C158.13 67.11 139.91 48.9 117.44 48.9Z" fill="#F58220"/>
<path d="M105.2 8.21C115.86 15.69 123.47 27.26 125.72 40.62C139.08 42.87 150.64 50.48 158.13 61.14V8.21H105.2Z" fill="#F58220"/>
<path d="M171.89 176.29H174.98V191.22H184.31V194.03H171.89V176.29Z" fill="white"/>
<path d="M190.62 190.96C191.31 191.54 192.16 191.83 193.15 191.83C193.91 191.83 194.57 191.69 195.13 191.42C195.69 191.15 196.24 190.75 196.78 190.23L198.58 191.83C197.94 192.59 197.17 193.2 196.29 193.66C195.4 194.12 194.34 194.34 193.11 194.34C192.15 194.34 191.25 194.17 190.41 193.83C189.57 193.49 188.85 193.02 188.23 192.41C187.61 191.8 187.13 191.07 186.77 190.22C186.42 189.37 186.24 188.42 186.24 187.37C186.24 186.41 186.4 185.5 186.72 184.66C187.04 183.82 187.49 183.08 188.08 182.44C188.66 181.81 189.35 181.3 190.15 180.93C190.94 180.56 191.82 180.37 192.79 180.37C193.85 180.37 194.79 180.56 195.59 180.95C196.39 181.34 197.06 181.86 197.59 182.52C198.12 183.18 198.52 183.95 198.79 184.83C199.06 185.71 199.2 186.63 199.2 187.59C199.2 187.73 199.2 187.86 199.19 188C199.18 188.14 199.17 188.28 199.15 188.43H189.32C189.49 189.53 189.93 190.37 190.62 190.96ZM196.15 186.41C196.1 185.92 195.99 185.46 195.82 185.03C195.65 184.6 195.42 184.23 195.14 183.91C194.85 183.6 194.51 183.35 194.11 183.16C193.71 182.97 193.26 182.88 192.75 182.88C191.8 182.88 191.02 183.21 190.41 183.86C189.79 184.51 189.42 185.36 189.28 186.41H196.15Z" fill="white"/>
<path d="M210.47 194.03V192.38C210.01 192.92 209.43 193.38 208.72 193.75C208.01 194.12 207.15 194.31 206.13 194.31C205.49 194.31 204.88 194.22 204.3 194.04C203.73 193.86 203.22 193.6 202.79 193.25C202.36 192.9 202.01 192.47 201.75 191.96C201.49 191.44 201.36 190.85 201.36 190.17V190.12C201.36 189.39 201.5 188.76 201.77 188.22C202.04 187.68 202.42 187.23 202.9 186.88C203.38 186.53 203.96 186.26 204.62 186.08C205.29 185.9 206.01 185.81 206.79 185.81C207.6 185.81 208.29 185.86 208.86 185.96C209.43 186.06 209.97 186.2 210.49 186.37V186.04C210.49 185.11 210.21 184.4 209.64 183.91C209.07 183.42 208.26 183.17 207.19 183.17C206.43 183.17 205.75 183.25 205.16 183.4C204.57 183.55 203.97 183.75 203.36 184.01L202.52 181.55C203.26 181.21 204.02 180.94 204.8 180.74C205.58 180.54 206.51 180.44 207.61 180.44C209.6 180.44 211.08 180.93 212.05 181.92C213.01 182.91 213.49 184.3 213.49 186.09V194.02H210.47V194.03ZM210.55 188.36C210.16 188.21 209.7 188.08 209.17 187.98C208.64 187.88 208.08 187.83 207.48 187.83C206.52 187.83 205.76 188.02 205.22 188.39C204.68 188.76 204.41 189.29 204.41 189.99V190.04C204.41 190.68 204.66 191.17 205.16 191.51C205.66 191.85 206.27 192.02 207 192.02C207.51 192.02 207.98 191.95 208.41 191.82C208.84 191.68 209.22 191.49 209.54 191.25C209.86 191.01 210.11 190.71 210.29 190.36C210.47 190.01 210.56 189.63 210.56 189.21V188.36H210.55Z" fill="white"/>
<path d="M220.25 194.03H217.16V180.65H220.25V183.67C220.67 182.66 221.27 181.84 222.05 181.24C222.83 180.63 223.81 180.35 224.99 180.4V183.64H224.81C224.13 183.64 223.52 183.75 222.96 183.97C222.4 184.19 221.92 184.52 221.52 184.96C221.11 185.4 220.8 185.95 220.58 186.62C220.36 187.29 220.25 188.06 220.25 188.94V194.03Z" fill="white"/>
<path d="M230.72 194.03H227.63V180.65H230.72V182.75C230.94 182.43 231.18 182.12 231.44 181.84C231.7 181.56 232 181.31 232.35 181.09C232.7 180.87 233.07 180.69 233.49 180.57C233.9 180.44 234.37 180.38 234.89 180.38C236.41 180.38 237.58 180.85 238.4 181.77C239.23 182.7 239.64 183.95 239.64 185.52V194.04H236.55V186.45C236.55 185.4 236.3 184.6 235.81 184.03C235.32 183.47 234.62 183.18 233.71 183.18C232.82 183.18 232.1 183.47 231.55 184.05C231 184.63 230.72 185.45 230.72 186.49V194.03Z" fill="white"/>
<path d="M243.4 178.6V175.68H246.72V178.6H243.4ZM243.52 194.03V180.65H246.61V194.03H243.52Z" fill="white"/>
<path d="M253.69 194.03H250.6V180.65H253.69V182.75C253.91 182.43 254.15 182.12 254.41 181.84C254.67 181.56 254.97 181.31 255.32 181.09C255.67 180.87 256.04 180.69 256.46 180.57C256.87 180.44 257.34 180.38 257.86 180.38C259.38 180.38 260.55 180.85 261.37 181.77C262.2 182.7 262.61 183.95 262.61 185.52V194.04H259.52V186.45C259.52 185.4 259.27 184.6 258.78 184.03C258.29 183.47 257.59 183.18 256.68 183.18C255.79 183.18 255.07 183.47 254.52 184.05C253.97 184.63 253.69 185.45 253.69 186.49V194.03Z" fill="white"/>
<path d="M277.59 196.49C276.34 197.59 274.57 198.14 272.27 198.14C270.04 198.14 268.05 197.61 266.29 196.54L267.43 194.23C268.14 194.67 268.88 195.02 269.66 195.27C270.44 195.52 271.28 195.65 272.19 195.65C273.56 195.65 274.61 195.3 275.33 194.61C276.06 193.91 276.42 192.89 276.42 191.53V190.49C275.86 191.22 275.21 191.82 274.47 192.28C273.73 192.74 272.81 192.97 271.71 192.97C270.92 192.97 270.16 192.83 269.43 192.55C268.7 192.27 268.06 191.86 267.49 191.32C266.92 190.78 266.47 190.12 266.13 189.34C265.79 188.56 265.62 187.68 265.62 186.68C265.62 185.68 265.79 184.8 266.13 184.02C266.47 183.24 266.92 182.58 267.49 182.04C268.06 181.5 268.71 181.09 269.44 180.8C270.18 180.51 270.93 180.37 271.71 180.37C272.84 180.37 273.78 180.6 274.51 181.05C275.25 181.5 275.87 182.04 276.4 182.67V180.65H279.47V191.3C279.47 193.66 278.84 195.4 277.59 196.49ZM276.13 185.16C275.92 184.7 275.64 184.31 275.28 183.99C274.93 183.67 274.51 183.42 274.03 183.25C273.55 183.07 273.05 182.99 272.52 182.99C271.98 182.99 271.48 183.08 271.02 183.25C270.56 183.43 270.16 183.67 269.82 183.99C269.47 184.31 269.2 184.7 269.01 185.15C268.82 185.6 268.72 186.11 268.72 186.66C268.72 187.21 268.82 187.72 269.02 188.17C269.22 188.62 269.49 189.01 269.83 189.34C270.17 189.67 270.57 189.92 271.03 190.1C271.49 190.28 271.99 190.36 272.51 190.36C273.03 190.36 273.54 190.27 274.02 190.1C274.5 189.92 274.92 189.67 275.27 189.34C275.62 189.01 275.91 188.63 276.12 188.18C276.33 187.74 276.44 187.24 276.44 186.68C276.45 186.13 276.34 185.62 276.13 185.16Z" fill="white"/>
<path d="M294.04 181.84C294.16 182.09 294.37 182.33 294.69 182.55C295 182.77 295.44 182.97 295.99 183.16C296.54 183.35 297.24 183.54 298.09 183.74C299.02 183.98 299.85 184.24 300.57 184.53C301.29 184.82 301.89 185.17 302.36 185.58C302.83 185.99 303.19 186.48 303.44 187.02C303.69 187.57 303.81 188.22 303.81 188.96C303.81 189.81 303.65 190.56 303.34 191.22C303.03 191.88 302.6 192.44 302.05 192.89C301.5 193.35 300.83 193.69 300.06 193.93C299.28 194.17 298.43 194.28 297.5 194.28C296.13 194.28 294.82 194.05 293.57 193.58C292.32 193.12 291.16 192.4 290.1 191.44L291.98 189.21C292.84 189.95 293.71 190.52 294.59 190.92C295.47 191.32 296.47 191.52 297.58 191.52C298.54 191.52 299.31 191.32 299.87 190.91C300.44 190.5 300.72 189.96 300.72 189.26C300.72 188.94 300.67 188.65 300.55 188.4C300.44 188.15 300.24 187.91 299.94 187.7C299.64 187.49 299.24 187.29 298.72 187.1C298.2 186.91 297.53 186.72 296.7 186.52C295.75 186.3 294.91 186.06 294.17 185.78C293.43 185.51 292.81 185.17 292.31 184.77C291.81 184.36 291.43 183.87 291.17 183.3C290.91 182.73 290.78 182.02 290.78 181.2C290.78 180.42 290.93 179.72 291.23 179.08C291.53 178.45 291.95 177.9 292.47 177.45C293 176.99 293.63 176.64 294.38 176.4C295.12 176.16 295.93 176.03 296.81 176.03C298.11 176.03 299.28 176.22 300.32 176.6C301.36 176.98 302.34 177.53 303.25 178.26L301.58 180.62C300.77 180.03 299.97 179.58 299.17 179.26C298.38 178.95 297.57 178.79 296.76 178.79C295.85 178.79 295.14 179 294.63 179.41C294.12 179.82 293.87 180.33 293.87 180.92C293.86 181.29 293.92 181.59 294.04 181.84Z" fill="white"/>
<path d="M307.17 178.6V175.68H310.49V178.6H307.17ZM307.3 194.03V180.65H310.39V194.03H307.3Z" fill="white"/>
<path d="M327.43 181.02C328.17 180.59 329.04 180.37 330.05 180.37C331.52 180.37 332.67 180.81 333.5 181.7C334.33 182.59 334.74 183.85 334.74 185.49V194.03H331.65V186.44C331.65 185.38 331.41 184.57 330.94 184.01C330.47 183.45 329.8 183.18 328.95 183.18C328.11 183.18 327.42 183.46 326.89 184.03C326.36 184.59 326.1 185.42 326.1 186.5V194.04H323.01V186.43C323.01 185.38 322.77 184.58 322.3 184.03C321.83 183.47 321.16 183.2 320.31 183.2C319.45 183.2 318.76 183.5 318.24 184.09C317.72 184.68 317.46 185.5 317.46 186.54V194.05H314.37V180.67H317.46V182.72C317.68 182.41 317.92 182.12 318.17 181.85C318.42 181.58 318.71 181.33 319.04 181.11C319.37 180.89 319.74 180.71 320.15 180.59C320.56 180.46 321.02 180.4 321.53 180.4C322.49 180.4 323.31 180.62 323.97 181.05C324.63 181.48 325.15 182.06 325.5 182.78C326.06 182.04 326.7 181.46 327.43 181.02Z" fill="white"/>
<path d="M351.77 190.31C351.42 191.17 350.96 191.9 350.38 192.5C349.8 193.1 349.13 193.55 348.38 193.86C347.63 194.16 346.85 194.32 346.06 194.32C344.96 194.32 344.05 194.08 343.32 193.61C342.59 193.14 341.99 192.59 341.52 191.96L341.55 198.09H338.46V180.65H341.55V182.88C342.04 182.17 342.65 181.57 343.37 181.09C344.09 180.61 345 180.37 346.08 180.37C346.87 180.37 347.64 180.52 348.38 180.83C349.12 181.13 349.78 181.59 350.36 182.19C350.94 182.79 351.41 183.52 351.76 184.38C352.11 185.24 352.29 186.23 352.29 187.35C352.29 188.46 352.11 189.45 351.77 190.31ZM348.89 185.56C348.69 185.03 348.41 184.58 348.07 184.2C347.72 183.83 347.32 183.54 346.85 183.34C346.39 183.14 345.89 183.04 345.37 183.04C344.85 183.04 344.35 183.14 343.87 183.34C343.4 183.54 342.98 183.83 342.63 184.21C342.28 184.59 341.99 185.04 341.78 185.57C341.57 186.09 341.46 186.69 341.46 187.34C341.46 188 341.57 188.59 341.78 189.11C341.99 189.63 342.27 190.09 342.63 190.47C342.98 190.85 343.4 191.14 343.87 191.34C344.34 191.54 344.84 191.64 345.37 191.64C345.89 191.64 346.39 191.54 346.85 191.34C347.31 191.14 347.72 190.85 348.07 190.48C348.42 190.11 348.69 189.66 348.89 189.12C349.09 188.58 349.19 187.99 349.19 187.33C349.2 186.68 349.09 186.09 348.89 185.56Z" fill="white"/>
<path d="M355.61 194.03V175.53H358.7V194.03H355.61Z" fill="white"/>
<path d="M362.73 178.6V175.68H366.05V178.6H362.73ZM362.86 194.03V180.65H365.95V194.03H362.86Z" fill="white"/>
<path d="M377.2 180.75V183.28H373.7V194.03H370.61V183.28H368.91V180.72H370.61V179.76C370.61 178.27 370.96 177.17 371.67 176.45C372.38 175.73 373.39 175.37 374.71 175.37C375.25 175.37 375.72 175.4 376.1 175.47C376.49 175.54 376.85 175.62 377.19 175.72V178.31C376.89 178.21 376.6 178.13 376.32 178.07C376.04 178.01 375.74 177.98 375.4 177.98C374.23 177.98 373.64 178.66 373.64 180.01V180.75H377.2ZM379.49 178.6V175.68H382.81V178.6H379.49ZM379.61 194.03V180.65H382.7V194.03H379.61Z" fill="white"/>
<path d="M390.36 190.96C391.05 191.54 391.9 191.83 392.89 191.83C393.65 191.83 394.31 191.69 394.87 191.42C395.43 191.15 395.98 190.75 396.52 190.23L398.32 191.83C397.68 192.59 396.91 193.2 396.03 193.66C395.14 194.12 394.08 194.34 392.85 194.34C391.89 194.34 390.99 194.17 390.15 193.83C389.31 193.49 388.59 193.02 387.97 192.41C387.35 191.8 386.87 191.07 386.51 190.22C386.16 189.37 385.98 188.42 385.98 187.37C385.98 186.41 386.14 185.5 386.46 184.66C386.78 183.82 387.23 183.08 387.82 182.44C388.4 181.81 389.09 181.3 389.89 180.93C390.68 180.56 391.56 180.37 392.53 180.37C393.59 180.37 394.53 180.56 395.33 180.95C396.13 181.34 396.8 181.86 397.33 182.52C397.86 183.18 398.26 183.95 398.53 184.83C398.8 185.71 398.94 186.63 398.94 187.59C398.94 187.73 398.94 187.86 398.93 188C398.92 188.14 398.91 188.28 398.89 188.43H389.06C389.23 189.53 389.67 190.37 390.36 190.96ZM395.89 186.41C395.84 185.92 395.73 185.46 395.56 185.03C395.39 184.6 395.16 184.23 394.88 183.91C394.59 183.6 394.25 183.35 393.85 183.16C393.45 182.97 393 182.88 392.49 182.88C391.54 182.88 390.76 183.21 390.15 183.86C389.53 184.51 389.16 185.36 389.02 186.41H395.89Z" fill="white"/>
<path d="M412.08 194.03V191.8C411.59 192.49 410.98 193.08 410.25 193.57C409.52 194.06 408.61 194.31 407.53 194.31C406.74 194.31 405.97 194.16 405.23 193.85C404.49 193.55 403.83 193.09 403.26 192.49C402.69 191.89 402.22 191.16 401.87 190.3C401.52 189.44 401.34 188.45 401.34 187.33C401.34 186.21 401.51 185.23 401.86 184.36C402.21 183.5 402.66 182.77 403.24 182.17C403.81 181.57 404.47 181.12 405.22 180.81C405.97 180.51 406.74 180.35 407.53 180.35C408.63 180.35 409.54 180.59 410.26 181.06C410.98 181.53 411.59 182.08 412.08 182.71V175.51H415.17V194.01H412.08V194.03ZM411.82 185.57C411.61 185.05 411.33 184.59 410.97 184.21C410.62 183.83 410.2 183.54 409.73 183.34C409.26 183.14 408.77 183.04 408.26 183.04C407.74 183.04 407.25 183.14 406.78 183.33C406.32 183.52 405.91 183.81 405.55 184.18C405.2 184.55 404.92 185 404.72 185.54C404.52 186.07 404.42 186.68 404.42 187.35C404.42 188.01 404.52 188.6 404.72 189.14C404.92 189.67 405.2 190.12 405.55 190.5C405.9 190.87 406.31 191.16 406.78 191.36C407.24 191.56 407.74 191.66 408.26 191.66C408.77 191.66 409.25 191.56 409.73 191.36C410.2 191.16 410.61 190.87 410.97 190.49C411.32 190.11 411.61 189.66 411.82 189.13C412.03 188.61 412.14 188.01 412.14 187.36C412.13 186.68 412.03 186.09 411.82 185.57Z" fill="white"/>
<path d="M418.8 194.03V190.56H422.17V194.03H418.8Z" fill="white"/>
<path d="M425.62 194.03V190.56H428.99V194.03H425.62Z" fill="white"/>
<path d="M432.44 194.03V190.56H435.81V194.03H432.44Z" fill="white"/>
<path d="M281.87 43.92V35.1H274.37C272.26 35.1 270.33 35.49 268.6 36.25C266.87 37.02 265.4 38.05 264.2 39.35C263 40.65 262.08 42.09 261.46 43.68C260.83 45.26 260.52 46.88 260.52 48.51V86H269.32V48.97C269.32 47.72 269.77 46.57 270.69 45.51C271.61 44.45 272.83 43.92 274.37 43.92H281.87Z" fill="white"/>
<path d="M295.89 48.22C295.89 46.97 296.34 45.82 297.26 44.76C298.17 43.7 299.4 43.18 300.94 43.18C302.38 43.18 303.56 43.71 304.48 44.76C305.39 45.82 305.85 46.97 305.85 48.22V86H314.65V47.79C314.65 46.16 314.34 44.55 313.71 42.96C313.08 41.37 312.17 39.93 310.97 38.63C309.77 37.33 308.33 36.3 306.65 35.53C304.97 34.76 303.07 34.38 300.95 34.38C298.84 34.38 296.91 34.77 295.18 35.53C293.45 36.3 291.98 37.33 290.78 38.63C289.58 39.93 288.67 41.37 288.04 42.96C287.41 44.55 287.1 46.16 287.1 47.79V86H295.9V48.22H295.89Z" fill="white"/>
<path d="M180.69 77.2V22.69H171.89V86H193.24V77.64V77.2H180.69Z" fill="white"/>
<path d="M225.06 43.1C224.43 41.51 223.52 40.07 222.32 38.77C221.12 37.47 219.67 36.44 218 35.67C216.31 34.9 214.42 34.51 212.3 34.51C210.19 34.51 208.26 34.9 206.53 35.67C204.8 36.44 203.33 37.47 202.13 38.77C200.93 40.07 200.01 41.51 199.39 43.1C198.76 44.69 198.45 46.3 198.45 47.93V72.59C198.45 74.23 198.76 75.84 199.39 77.42C200.01 79.01 200.93 80.45 202.13 81.75C203.33 83.05 204.77 84.08 206.46 84.85C208.14 85.62 210.04 86 212.16 86H221.6V77.2H212.76C210.76 77.2 209.5 76.87 208.77 76.19C208.05 75.52 207.59 74.51 207.4 73.16C210.38 72.58 213.02 71.57 215.33 70.13C217.64 68.69 219.58 66.94 221.17 64.87C222.76 62.81 223.96 60.57 224.78 58.17C225.6 55.77 226.01 53.36 226.01 50.96V47.93C226 46.3 225.68 44.69 225.06 43.1ZM217.2 50.57C217.2 53.36 216.33 56.05 214.6 58.65C212.87 61.25 210.42 63.07 207.25 64.13V48.37C207.25 47.12 207.7 45.97 208.62 44.91C209.54 43.85 210.76 43.32 212.3 43.32C213.74 43.32 214.92 43.85 215.83 44.91C216.75 45.97 217.2 47.12 217.2 48.37V50.57Z" fill="white"/>
<path d="M228.7 77.42C229.33 79.01 230.24 80.45 231.44 81.75C232.64 83.05 234.09 84.08 235.76 84.85C237.45 85.62 239.34 86.01 241.46 86.01C243.57 86.01 245.5 85.62 247.23 84.85C248.96 84.08 250.43 83.05 251.63 81.75C252.83 80.45 253.75 79.01 254.37 77.42C255 75.83 255.31 74.22 255.31 72.59V47.93C255.31 46.29 255 44.68 254.37 43.1C253.75 41.51 252.83 40.07 251.63 38.77C250.43 37.47 248.99 36.44 247.31 35.67C245.63 34.9 243.73 34.52 241.61 34.52H232.17V43.32H241.01C243.01 43.32 244.27 43.65 245 44.33C245.72 45 246.18 46.01 246.37 47.36C243.39 47.94 240.75 48.95 238.44 50.39C236.13 51.83 234.19 53.58 232.6 55.65C231.01 57.71 229.81 59.95 228.99 62.35C228.17 64.75 227.76 67.16 227.76 69.56V72.59C227.77 74.22 228.08 75.83 228.7 77.42ZM236.56 69.95C236.56 67.16 237.43 64.47 239.16 61.87C240.89 59.27 243.34 57.45 246.51 56.39V72.14C246.51 73.39 246.06 74.54 245.14 75.6C244.22 76.66 243 77.19 241.46 77.19C240.02 77.19 238.84 76.66 237.93 75.6C237.01 74.54 236.56 73.39 236.56 72.14V69.95Z" fill="white"/>
<path d="M383.44 48.22C383.44 46.97 383.89 45.82 384.81 44.76C385.72 43.7 386.95 43.18 388.49 43.18C389.93 43.18 391.11 43.71 392.03 44.76C392.94 45.82 393.4 46.97 393.4 48.22V86H402.2V47.79C402.2 46.16 401.89 44.55 401.26 42.96C400.63 41.37 399.72 39.93 398.52 38.63C397.32 37.33 395.88 36.3 394.2 35.53C392.52 34.76 390.62 34.38 388.5 34.38C386.39 34.38 384.46 34.77 382.73 35.53C381 36.3 379.53 37.33 378.33 38.63C377.13 39.93 376.22 41.37 375.59 42.96C374.96 44.55 374.65 46.16 374.65 47.79V86H383.45V48.22H383.44Z" fill="white"/>
<path d="M427.01 21.97V34.66C424.03 35.24 421.36 36.27 419.01 37.76C416.65 39.25 414.68 41.03 413.1 43.1C411.51 45.17 410.31 47.4 409.49 49.81C408.67 52.21 408.26 54.62 408.26 57.02V72.45C408.26 74.08 408.57 75.72 409.2 77.35C409.82 78.99 410.74 80.45 411.94 81.75C413.14 83.05 414.61 84.08 416.34 84.85C418.07 85.62 419.99 86 422.11 86C424.23 86 426.13 85.61 427.81 84.85C429.49 84.08 430.93 83.05 432.13 81.75C433.33 80.45 434.24 78.99 434.87 77.35C435.49 75.72 435.81 74.08 435.81 72.45V21.97H427.01ZM427.01 72.44C427.01 73.79 426.55 74.99 425.64 76.05C424.73 77.11 423.55 77.63 422.1 77.63C420.56 77.63 419.34 77.1 418.42 76.05C417.5 74.99 417.05 73.79 417.05 72.44V57.01C417.05 54.22 417.91 51.53 419.64 48.93C421.37 46.33 423.82 44.51 426.99 43.45V72.44H427.01Z" fill="white"/>
<path d="M341.96 77.42C342.59 79.01 343.5 80.45 344.7 81.75C345.9 83.05 347.35 84.08 349.02 84.85C350.71 85.62 352.6 86.01 354.72 86.01C356.83 86.01 358.76 85.62 360.49 84.85C362.22 84.08 363.69 83.05 364.89 81.75C366.09 80.45 367.01 79.01 367.63 77.42C368.26 75.83 368.57 74.22 368.57 72.59V47.93C368.57 46.29 368.26 44.68 367.63 43.1C367.01 41.51 366.09 40.07 364.89 38.77C363.69 37.47 362.25 36.44 360.56 35.67C358.88 34.9 356.98 34.52 354.86 34.52H345.42V43.32H354.26C356.26 43.32 357.52 43.65 358.25 44.33C358.97 45 359.43 46.01 359.62 47.36C356.64 47.94 354 48.95 351.69 50.39C349.38 51.83 347.44 53.58 345.85 55.65C344.26 57.71 343.06 59.95 342.24 62.35C341.42 64.75 341.01 67.16 341.01 69.56V72.59C341.02 74.22 341.34 75.83 341.96 77.42ZM349.82 69.95C349.82 67.16 350.69 64.47 352.42 61.87C354.15 59.27 356.6 57.45 359.77 56.39V72.14C359.77 73.39 359.32 74.54 358.4 75.6C357.48 76.66 356.26 77.19 354.72 77.19C353.28 77.19 352.1 76.66 351.19 75.6C350.27 74.54 349.82 73.39 349.82 72.14V69.95Z" fill="white"/>
<path d="M427.01 21.97V34.67C426.96 34.68 426.91 34.68 426.87 34.7C423.89 35.28 421.25 36.29 418.94 37.73C416.63 39.17 414.69 40.92 413.1 42.99C411.51 45.05 410.31 47.29 409.49 49.69C408.67 52.09 408.26 54.5 408.26 56.9V72.58C408.26 74.21 408.57 75.82 409.2 77.41C409.83 79 410.74 80.44 411.94 81.74C413.14 83.04 414.59 84.07 416.26 84.84C417.95 85.61 419.84 86 421.96 86C424.07 86 426 85.61 427.73 84.84C429.46 84.07 430.93 83.04 432.13 81.74C433.33 80.44 434.25 79 434.87 77.41C435.5 75.82 435.81 74.21 435.81 72.58V53.92V47.93V21.97H427.01ZM427.01 72.15C427.01 73.4 426.56 74.55 425.64 75.61C424.72 76.67 423.5 77.19 421.96 77.19C420.52 77.19 419.34 76.66 418.43 75.61C417.52 74.55 417.06 73.4 417.06 72.15V57.29C417.06 54.5 417.93 51.81 419.66 49.21C421.39 46.61 423.84 44.79 427.01 43.73V53.91V72.15Z" fill="white"/>
<path d="M282.79 111.6H273.99V162.5H282.79V111.6Z" fill="white"/>
<path d="M333.02 139.46L327.46 110.88H318.5L328.53 162.5H328.54H337.5L347.54 110.88H338.57L333.02 139.46Z" fill="white"/>
<path d="M193.16 99.2H184.2L171.89 162.51H180.85L183.46 149.09H193.9L196.51 162.51H205.47L193.16 99.2ZM185.17 140.28L188.68 122.23L192.19 140.28H185.17Z" fill="white"/>
<path d="M314.61 119.6C313.98 118.01 313.07 116.57 311.87 115.27C310.67 113.97 309.22 112.94 307.55 112.17C305.86 111.4 303.97 111.01 301.85 111.01C299.74 111.01 297.81 111.4 296.08 112.17C294.35 112.94 292.88 113.97 291.68 115.27C290.48 116.57 289.56 118.01 288.94 119.6C288.31 121.19 288 122.8 288 124.43V149.09C288 150.73 288.31 152.34 288.94 153.92C289.56 155.51 290.48 156.95 291.68 158.25C292.88 159.55 294.32 160.58 296 161.35C297.68 162.12 299.58 162.5 301.7 162.5H311.14V153.7H302.3C300.3 153.7 299.04 153.37 298.31 152.69C297.59 152.02 297.13 151.01 296.94 149.66C299.92 149.08 302.56 148.07 304.87 146.63C307.18 145.19 309.12 143.44 310.71 141.37C312.3 139.31 313.5 137.07 314.32 134.67C315.14 132.27 315.55 129.86 315.55 127.46V124.43C315.55 122.8 315.23 121.19 314.61 119.6ZM306.75 127.07C306.75 129.86 305.88 132.55 304.15 135.15C302.42 137.75 299.97 139.57 296.8 140.63V124.88C296.8 123.63 297.25 122.48 298.17 121.42C299.09 120.36 300.31 119.83 301.85 119.83C303.29 119.83 304.47 120.36 305.38 121.42C306.3 122.48 306.75 123.63 306.75 124.88V127.07Z" fill="white"/>
<path d="M377.1 119.6C376.47 118.01 375.56 116.57 374.36 115.27C373.16 113.97 371.71 112.94 370.04 112.17C368.35 111.4 366.46 111.01 364.34 111.01C362.23 111.01 360.3 111.4 358.57 112.17C356.84 112.94 355.37 113.97 354.17 115.27C352.97 116.57 352.05 118.01 351.43 119.6C350.8 121.19 350.49 122.8 350.49 124.43V149.09C350.49 150.73 350.8 152.34 351.43 153.92C352.05 155.51 352.97 156.95 354.17 158.25C355.37 159.55 356.81 160.58 358.49 161.35C360.17 162.12 362.07 162.5 364.19 162.5H373.63V153.7H364.79C362.79 153.7 361.53 153.37 360.8 152.69C360.08 152.02 359.62 151.01 359.43 149.66C362.41 149.08 365.05 148.07 367.36 146.63C369.67 145.19 371.61 143.44 373.2 141.37C374.79 139.31 375.99 137.07 376.81 134.67C377.63 132.27 378.04 129.86 378.04 127.46V124.43C378.04 122.8 377.72 121.19 377.1 119.6ZM369.24 127.07C369.24 129.86 368.37 132.55 366.64 135.15C364.91 137.75 362.46 139.57 359.29 140.63V124.88C359.29 123.63 359.74 122.48 360.66 121.42C361.58 120.36 362.8 119.83 364.34 119.83C365.78 119.83 366.96 120.36 367.87 121.42C368.79 122.48 369.24 123.63 369.24 124.88V127.07Z" fill="white"/>
<path d="M227.22 141.92V148.86C227.22 149.45 227.11 150.03 226.88 150.61C226.65 151.18 226.32 151.7 225.89 152.17C225.46 152.64 224.93 153.01 224.3 153.29C223.67 153.57 222.98 153.71 222.22 153.71C221.45 153.71 220.77 153.57 220.16 153.29C219.55 153.01 219.03 152.64 218.6 152.17C218.17 151.7 217.83 151.18 217.61 150.61C217.38 150.04 217.27 149.46 217.27 148.86V123.8C217.27 123.21 217.38 122.63 217.61 122.05C217.84 121.48 218.17 120.96 218.6 120.49C219.03 120.02 219.55 119.65 220.16 119.37C220.77 119.09 221.45 118.95 222.22 118.95C222.98 118.95 223.68 119.1 224.3 119.39C224.93 119.69 225.45 120.07 225.89 120.54C226.32 121.01 226.65 121.53 226.88 122.1C227.11 122.67 227.22 123.26 227.22 123.85V130.73H236.02V123.71C236.02 122.08 235.71 120.47 235.08 118.88C234.45 117.29 233.54 115.85 232.34 114.55C231.14 113.25 229.67 112.2 227.94 111.38C226.21 110.56 224.29 110.15 222.17 110.15C220.05 110.15 218.16 110.54 216.47 111.3C214.79 112.07 213.34 113.1 212.15 114.4C210.95 115.7 210.03 117.14 209.41 118.73C208.78 120.32 208.47 121.93 208.47 123.56V149.08C208.47 150.71 208.78 152.32 209.41 153.91C210.03 155.5 210.95 156.94 212.15 158.24C213.35 159.54 214.79 160.57 216.47 161.34C218.15 162.11 220.05 162.49 222.17 162.49C224.28 162.49 226.21 162.1 227.94 161.34C229.67 160.57 231.14 159.54 232.34 158.24C233.54 156.94 234.45 155.5 235.08 153.91C235.7 152.32 236.02 150.71 236.02 149.08V141.91H227.22V141.92Z" fill="white"/>
<path d="M267.84 119.6C267.21 118.01 266.3 116.57 265.1 115.27C263.9 113.97 262.43 112.92 260.7 112.1C258.97 111.28 257.05 110.87 254.93 110.87C253.13 110.87 251.51 111.16 250.03 111.72V99.2H241.23V124.29V130.77V162.51H250.03V130.77V124.52C250.03 123.93 250.14 123.35 250.37 122.77C250.6 122.2 250.93 121.68 251.36 121.21C251.79 120.74 252.31 120.37 252.92 120.09C253.53 119.81 254.21 119.67 254.98 119.67C255.74 119.67 256.44 119.82 257.06 120.11C257.69 120.41 258.21 120.79 258.65 121.26C259.08 121.73 259.41 122.25 259.64 122.82C259.87 123.39 259.98 123.98 259.98 124.57V128.4V130.76V162.5H268.78V130.76V128.4V124.43C268.78 122.8 268.46 121.19 267.84 119.6Z" fill="white"/>
<path d="M273.99 111.6V128.9V145.2V162.5H282.79V145.2V128.9V111.6H273.99Z" fill="white"/>
<path d="M282.78 107.99V99.2H277.82H273.99V107.99H277.82H282.78Z" fill="white"/>
</svg>
