<?xml version="1.0" encoding="utf-8"?>
<!-- Generator: Adobe Illustrator 25.4.1, SVG Export Plug-In . SVG Version: 6.00 Build 0)  -->
<svg version="1.1" id="Layer_1" xmlns="http://www.w3.org/2000/svg" xmlns:xlink="http://www.w3.org/1999/xlink" x="0px" y="0px"
	 viewBox="0 0 445 216" style="enable-background:new 0 0 445 216;" xml:space="preserve">
<style type="text/css">
	.st0{fill:#13499F;}
	.st1{fill:#007AC2;}
	.st2{fill:#F58220;}
	.st3{fill:#4D4D4F;}
</style>
<g>
	<g>
		<path class="st0" d="M28.54,57.89C17.3,57.89,8.19,67,8.19,78.23v109.22c0,11.24,9.11,20.35,20.35,20.35
			c11.24,0,20.35-9.11,20.35-20.35V78.23C48.88,67,39.77,57.89,28.54,57.89z"/>
		<path class="st1" d="M137.75,167.1H48.88h0c-22.47,0-40.69-18.22-40.69-40.69v54.53v6.5l0,0c0,0,0,0,0,0
			c0,11.24,9.11,20.35,20.35,20.35h109.22c11.24,0,20.35-9.11,20.35-20.35C158.1,176.21,148.99,167.1,137.75,167.1z"/>
		<g>
			<path class="st2" d="M76.75,8.21H28.54c-11.24,0-20.35,9.11-20.35,20.35c0,11.24,9.11,20.35,20.35,20.35h88.9
				C117.44,26.43,99.22,8.21,76.75,8.21z"/>
			<path class="st2" d="M117.44,48.9v88.9c0,11.24,9.11,20.35,20.35,20.35c11.24,0,20.35-9.11,20.35-20.35V89.59
				C158.13,67.11,139.91,48.9,117.44,48.9z"/>
			<path class="st2" d="M105.2,8.21c10.66,7.48,18.27,19.05,20.52,32.41c13.36,2.25,24.92,9.86,32.41,20.52V8.21H105.2z"/>
		</g>
	</g>
	<g>
		<g>
			<path class="st3" d="M171.89,176.29h3.09v14.93h9.33v2.81h-12.42V176.29z"/>
			<path class="st3" d="M190.62,190.96c0.69,0.58,1.54,0.87,2.53,0.87c0.76,0,1.42-0.14,1.98-0.41c0.56-0.27,1.11-0.67,1.65-1.19
				l1.8,1.6c-0.64,0.76-1.41,1.37-2.29,1.83c-0.89,0.46-1.95,0.68-3.18,0.68c-0.96,0-1.86-0.17-2.7-0.51
				c-0.84-0.34-1.56-0.81-2.18-1.42c-0.62-0.61-1.1-1.34-1.46-2.19c-0.35-0.85-0.53-1.8-0.53-2.85c0-0.96,0.16-1.87,0.48-2.71
				c0.32-0.84,0.77-1.58,1.36-2.22c0.58-0.63,1.27-1.14,2.07-1.51c0.79-0.37,1.67-0.56,2.64-0.56c1.06,0,2,0.19,2.8,0.58
				c0.8,0.39,1.47,0.91,2,1.57c0.53,0.66,0.93,1.43,1.2,2.31c0.27,0.88,0.41,1.8,0.41,2.76c0,0.14,0,0.27-0.01,0.41
				c-0.01,0.14-0.02,0.28-0.04,0.43h-9.83C189.49,189.53,189.93,190.37,190.62,190.96z M196.15,186.41
				c-0.05-0.49-0.16-0.95-0.33-1.38c-0.17-0.43-0.4-0.8-0.68-1.12c-0.29-0.31-0.63-0.56-1.03-0.75c-0.4-0.19-0.85-0.28-1.36-0.28
				c-0.95,0-1.73,0.33-2.34,0.98c-0.62,0.65-0.99,1.5-1.13,2.55H196.15z"/>
			<path class="st3" d="M210.47,194.03v-1.65c-0.46,0.54-1.04,1-1.75,1.37c-0.71,0.37-1.57,0.56-2.59,0.56
				c-0.64,0-1.25-0.09-1.83-0.27c-0.57-0.18-1.08-0.44-1.51-0.79c-0.43-0.35-0.78-0.78-1.04-1.29c-0.26-0.52-0.39-1.11-0.39-1.79
				v-0.05c0-0.73,0.14-1.36,0.41-1.9c0.27-0.54,0.65-0.99,1.13-1.34c0.48-0.35,1.06-0.62,1.72-0.8c0.67-0.18,1.39-0.27,2.17-0.27
				c0.81,0,1.5,0.05,2.07,0.15c0.57,0.1,1.11,0.24,1.63,0.41v-0.33c0-0.93-0.28-1.64-0.85-2.13c-0.57-0.49-1.38-0.74-2.45-0.74
				c-0.76,0-1.44,0.08-2.03,0.23c-0.59,0.15-1.19,0.35-1.8,0.61l-0.84-2.46c0.74-0.34,1.5-0.61,2.28-0.81
				c0.78-0.2,1.71-0.3,2.81-0.3c1.99,0,3.47,0.49,4.44,1.48c0.96,0.99,1.44,2.38,1.44,4.17v7.93H210.47z M210.55,188.36
				c-0.39-0.15-0.85-0.28-1.38-0.38c-0.53-0.1-1.09-0.15-1.69-0.15c-0.96,0-1.72,0.19-2.26,0.56c-0.54,0.37-0.81,0.9-0.81,1.6v0.05
				c0,0.64,0.25,1.13,0.75,1.47c0.5,0.34,1.11,0.51,1.84,0.51c0.51,0,0.98-0.07,1.41-0.2c0.43-0.14,0.81-0.33,1.13-0.57
				c0.32-0.24,0.57-0.54,0.75-0.89c0.18-0.35,0.27-0.73,0.27-1.15V188.36z"/>
			<path class="st3" d="M220.25,194.03h-3.09v-13.38h3.09v3.02c0.42-1.01,1.02-1.83,1.8-2.43c0.78-0.61,1.76-0.89,2.94-0.84v3.24
				h-0.18c-0.68,0-1.29,0.11-1.85,0.33c-0.56,0.22-1.04,0.55-1.44,0.99c-0.41,0.44-0.72,0.99-0.94,1.66
				c-0.22,0.67-0.33,1.44-0.33,2.32V194.03z"/>
			<path class="st3" d="M230.72,194.03h-3.09v-13.38h3.09v2.1c0.22-0.32,0.46-0.63,0.72-0.91c0.26-0.28,0.56-0.53,0.91-0.75
				c0.35-0.22,0.72-0.4,1.14-0.52c0.41-0.13,0.88-0.19,1.4-0.19c1.52,0,2.69,0.47,3.51,1.39c0.83,0.93,1.24,2.18,1.24,3.75v8.52
				h-3.09v-7.59c0-1.05-0.25-1.85-0.74-2.42c-0.49-0.56-1.19-0.85-2.1-0.85c-0.89,0-1.61,0.29-2.16,0.87
				c-0.55,0.58-0.83,1.4-0.83,2.44V194.03z"/>
			<path class="st3" d="M243.4,178.6v-2.92h3.32v2.92H243.4z M243.52,194.03v-13.38h3.09v13.38H243.52z"/>
			<path class="st3" d="M253.69,194.03h-3.09v-13.38h3.09v2.1c0.22-0.32,0.46-0.63,0.72-0.91c0.26-0.28,0.56-0.53,0.91-0.75
				c0.35-0.22,0.72-0.4,1.14-0.52c0.41-0.13,0.88-0.19,1.4-0.19c1.52,0,2.69,0.47,3.51,1.39c0.83,0.93,1.24,2.18,1.24,3.75v8.52
				h-3.09v-7.59c0-1.05-0.25-1.85-0.74-2.42c-0.49-0.56-1.19-0.85-2.1-0.85c-0.89,0-1.61,0.29-2.16,0.87
				c-0.55,0.58-0.83,1.4-0.83,2.44V194.03z"/>
			<path class="st3" d="M277.59,196.49c-1.25,1.1-3.02,1.65-5.32,1.65c-2.23,0-4.22-0.53-5.98-1.6l1.14-2.31
				c0.71,0.44,1.45,0.79,2.23,1.04c0.78,0.25,1.62,0.38,2.53,0.38c1.37,0,2.42-0.35,3.14-1.04c0.73-0.7,1.09-1.72,1.09-3.08v-1.04
				c-0.56,0.73-1.21,1.33-1.95,1.79c-0.74,0.46-1.66,0.69-2.76,0.69c-0.79,0-1.55-0.14-2.28-0.42c-0.73-0.28-1.37-0.69-1.94-1.23
				c-0.57-0.54-1.02-1.2-1.36-1.98c-0.34-0.78-0.51-1.66-0.51-2.66c0-1,0.17-1.88,0.51-2.66c0.34-0.78,0.79-1.44,1.36-1.98
				c0.57-0.54,1.22-0.95,1.95-1.24c0.74-0.29,1.49-0.43,2.27-0.43c1.13,0,2.07,0.23,2.8,0.68c0.74,0.45,1.36,0.99,1.89,1.62v-2.02
				h3.07v10.65C279.47,193.66,278.84,195.4,277.59,196.49z M276.13,185.16c-0.21-0.46-0.49-0.85-0.85-1.17
				c-0.35-0.32-0.77-0.57-1.25-0.74c-0.48-0.18-0.98-0.26-1.51-0.26c-0.54,0-1.04,0.09-1.5,0.26c-0.46,0.18-0.86,0.42-1.2,0.74
				c-0.35,0.32-0.62,0.71-0.81,1.16c-0.19,0.45-0.29,0.96-0.29,1.51c0,0.55,0.1,1.06,0.3,1.51c0.2,0.45,0.47,0.84,0.81,1.17
				c0.34,0.33,0.74,0.58,1.2,0.76c0.46,0.18,0.96,0.26,1.48,0.26c0.52,0,1.03-0.09,1.51-0.26c0.48-0.18,0.9-0.43,1.25-0.76
				c0.35-0.33,0.64-0.71,0.85-1.16c0.21-0.44,0.32-0.94,0.32-1.5C276.45,186.13,276.34,185.62,276.13,185.16z"/>
			<path class="st3" d="M294.04,181.84c0.12,0.25,0.33,0.49,0.65,0.71c0.31,0.22,0.75,0.42,1.3,0.61c0.55,0.19,1.25,0.38,2.1,0.58
				c0.93,0.24,1.76,0.5,2.48,0.79c0.72,0.29,1.32,0.64,1.79,1.05c0.47,0.41,0.83,0.9,1.08,1.44c0.25,0.55,0.37,1.2,0.37,1.94
				c0,0.85-0.16,1.6-0.47,2.26c-0.31,0.66-0.74,1.22-1.29,1.67c-0.55,0.46-1.22,0.8-1.99,1.04c-0.78,0.24-1.63,0.35-2.56,0.35
				c-1.37,0-2.68-0.23-3.93-0.7c-1.25-0.46-2.41-1.18-3.47-2.14l1.88-2.23c0.86,0.74,1.73,1.31,2.61,1.71
				c0.88,0.4,1.88,0.6,2.99,0.6c0.96,0,1.73-0.2,2.29-0.61c0.57-0.41,0.85-0.95,0.85-1.65c0-0.32-0.05-0.61-0.17-0.86
				c-0.11-0.25-0.31-0.49-0.61-0.7c-0.3-0.21-0.7-0.41-1.22-0.6c-0.52-0.19-1.19-0.38-2.02-0.58c-0.95-0.22-1.79-0.46-2.53-0.74
				c-0.74-0.27-1.36-0.61-1.86-1.01c-0.5-0.41-0.88-0.9-1.14-1.47c-0.26-0.57-0.39-1.28-0.39-2.1c0-0.78,0.15-1.48,0.45-2.12
				c0.3-0.63,0.72-1.18,1.24-1.63c0.53-0.46,1.16-0.81,1.91-1.05c0.74-0.24,1.55-0.37,2.43-0.37c1.3,0,2.47,0.19,3.51,0.57
				c1.04,0.38,2.02,0.93,2.93,1.66l-1.67,2.36c-0.81-0.59-1.61-1.04-2.41-1.36c-0.79-0.31-1.6-0.47-2.41-0.47
				c-0.91,0-1.62,0.21-2.13,0.62c-0.51,0.41-0.76,0.92-0.76,1.51C293.86,181.29,293.92,181.59,294.04,181.84z"/>
			<path class="st3" d="M307.17,178.6v-2.92h3.32v2.92H307.17z M307.3,194.03v-13.38h3.09v13.38H307.3z"/>
			<path class="st3" d="M327.43,181.02c0.74-0.43,1.61-0.65,2.62-0.65c1.47,0,2.62,0.44,3.45,1.33c0.83,0.89,1.24,2.15,1.24,3.79
				v8.54h-3.09v-7.59c0-1.06-0.24-1.87-0.71-2.43c-0.47-0.56-1.14-0.83-1.99-0.83c-0.84,0-1.53,0.28-2.06,0.85
				c-0.53,0.56-0.79,1.39-0.79,2.47v7.54h-3.09v-7.61c0-1.05-0.24-1.85-0.71-2.4c-0.47-0.56-1.14-0.83-1.99-0.83
				c-0.86,0-1.55,0.3-2.07,0.89c-0.52,0.59-0.78,1.41-0.78,2.45v7.51h-3.09v-13.38h3.09v2.05c0.22-0.31,0.46-0.6,0.71-0.87
				c0.25-0.27,0.54-0.52,0.87-0.74c0.33-0.22,0.7-0.4,1.11-0.52c0.41-0.13,0.87-0.19,1.38-0.19c0.96,0,1.78,0.22,2.44,0.65
				s1.18,1.01,1.53,1.73C326.06,182.04,326.7,181.46,327.43,181.02z"/>
			<path class="st3" d="M351.77,190.31c-0.35,0.86-0.81,1.59-1.39,2.19c-0.58,0.6-1.25,1.05-2,1.36c-0.75,0.3-1.53,0.46-2.32,0.46
				c-1.1,0-2.01-0.24-2.74-0.71c-0.73-0.47-1.33-1.02-1.8-1.65l0.03,6.13h-3.09v-17.44h3.09v2.23c0.49-0.71,1.1-1.31,1.82-1.79
				c0.72-0.48,1.63-0.72,2.71-0.72c0.79,0,1.56,0.15,2.3,0.46c0.74,0.3,1.4,0.76,1.98,1.36c0.58,0.6,1.05,1.33,1.4,2.19
				c0.35,0.86,0.53,1.85,0.53,2.97C352.29,188.46,352.11,189.45,351.77,190.31z M348.89,185.56c-0.2-0.53-0.48-0.98-0.82-1.36
				c-0.35-0.37-0.75-0.66-1.22-0.86c-0.46-0.2-0.96-0.3-1.48-0.3c-0.52,0-1.02,0.1-1.5,0.3c-0.47,0.2-0.89,0.49-1.24,0.87
				c-0.35,0.38-0.64,0.83-0.85,1.36c-0.21,0.52-0.32,1.12-0.32,1.77c0,0.66,0.11,1.25,0.32,1.77c0.21,0.52,0.49,0.98,0.85,1.36
				c0.35,0.38,0.77,0.67,1.24,0.87c0.47,0.2,0.97,0.3,1.5,0.3c0.52,0,1.02-0.1,1.48-0.3c0.46-0.2,0.87-0.49,1.22-0.86
				c0.35-0.37,0.62-0.82,0.82-1.36s0.3-1.13,0.3-1.79C349.2,186.68,349.09,186.09,348.89,185.56z"/>
			<path class="st3" d="M355.61,194.03v-18.5h3.09v18.5H355.61z"/>
			<path class="st3" d="M362.73,178.6v-2.92h3.32v2.92H362.73z M362.86,194.03v-13.38h3.09v13.38H362.86z"/>
			<path class="st3" d="M377.2,180.75v2.53h-3.5v10.75h-3.09v-10.75h-1.7v-2.56h1.7v-0.96c0-1.49,0.35-2.59,1.06-3.31
				c0.71-0.72,1.72-1.08,3.04-1.08c0.54,0,1.01,0.03,1.39,0.1c0.39,0.07,0.75,0.15,1.09,0.25v2.59c-0.3-0.1-0.59-0.18-0.87-0.24
				c-0.28-0.06-0.58-0.09-0.92-0.09c-1.17,0-1.76,0.68-1.76,2.03v0.74H377.2z M379.49,178.6v-2.92h3.32v2.92H379.49z M379.61,194.03
				v-13.38h3.09v13.38H379.61z"/>
			<path class="st3" d="M390.36,190.96c0.69,0.58,1.54,0.87,2.53,0.87c0.76,0,1.42-0.14,1.98-0.41c0.56-0.27,1.11-0.67,1.65-1.19
				l1.8,1.6c-0.64,0.76-1.41,1.37-2.29,1.83c-0.89,0.46-1.95,0.68-3.18,0.68c-0.96,0-1.86-0.17-2.7-0.51
				c-0.84-0.34-1.56-0.81-2.18-1.42c-0.62-0.61-1.1-1.34-1.46-2.19c-0.35-0.85-0.53-1.8-0.53-2.85c0-0.96,0.16-1.87,0.48-2.71
				c0.32-0.84,0.77-1.58,1.36-2.22c0.58-0.63,1.27-1.14,2.07-1.51c0.79-0.37,1.67-0.56,2.64-0.56c1.06,0,2,0.19,2.8,0.58
				c0.8,0.39,1.47,0.91,2,1.57c0.53,0.66,0.93,1.43,1.2,2.31c0.27,0.88,0.41,1.8,0.41,2.76c0,0.14,0,0.27-0.01,0.41
				c-0.01,0.14-0.02,0.28-0.04,0.43h-9.83C389.23,189.53,389.67,190.37,390.36,190.96z M395.89,186.41
				c-0.05-0.49-0.16-0.95-0.33-1.38c-0.17-0.43-0.4-0.8-0.68-1.12c-0.29-0.31-0.63-0.56-1.03-0.75c-0.4-0.19-0.85-0.28-1.36-0.28
				c-0.95,0-1.73,0.33-2.34,0.98c-0.62,0.65-0.99,1.5-1.13,2.55H395.89z"/>
			<path class="st3" d="M412.08,194.03v-2.23c-0.49,0.69-1.1,1.28-1.83,1.77c-0.73,0.49-1.64,0.74-2.72,0.74
				c-0.79,0-1.56-0.15-2.3-0.46c-0.74-0.3-1.4-0.76-1.97-1.36c-0.57-0.6-1.04-1.33-1.39-2.19c-0.35-0.86-0.53-1.85-0.53-2.97
				c0-1.12,0.17-2.1,0.52-2.97c0.35-0.86,0.8-1.59,1.38-2.19c0.57-0.6,1.23-1.05,1.98-1.36c0.75-0.3,1.52-0.46,2.31-0.46
				c1.1,0,2.01,0.24,2.73,0.71c0.72,0.47,1.33,1.02,1.82,1.65v-7.2h3.09v18.5H412.08z M411.82,185.57
				c-0.21-0.52-0.49-0.98-0.85-1.36c-0.35-0.38-0.77-0.67-1.24-0.87c-0.47-0.2-0.96-0.3-1.47-0.3c-0.52,0-1.01,0.1-1.48,0.29
				c-0.46,0.19-0.87,0.48-1.23,0.85c-0.35,0.37-0.63,0.82-0.83,1.36c-0.2,0.53-0.3,1.14-0.3,1.81c0,0.66,0.1,1.25,0.3,1.79
				c0.2,0.53,0.48,0.98,0.83,1.36c0.35,0.37,0.76,0.66,1.23,0.86c0.46,0.2,0.96,0.3,1.48,0.3c0.51,0,0.99-0.1,1.47-0.3
				c0.47-0.2,0.88-0.49,1.24-0.87c0.35-0.38,0.64-0.83,0.85-1.36c0.21-0.52,0.32-1.12,0.32-1.77
				C412.13,186.68,412.03,186.09,411.82,185.57z"/>
			<path class="st3" d="M418.8,194.03v-3.47h3.37v3.47H418.8z"/>
			<path class="st3" d="M425.62,194.03v-3.47h3.37v3.47H425.62z"/>
			<path class="st3" d="M432.44,194.03v-3.47h3.37v3.47H432.44z"/>
		</g>
		<g>
			<path class="st3" d="M281.87,43.92v-8.82h-7.5c-2.11,0-4.04,0.39-5.77,1.15c-1.73,0.77-3.2,1.8-4.4,3.1
				c-1.2,1.3-2.12,2.74-2.74,4.33c-0.63,1.58-0.94,3.2-0.94,4.83V86h8.8V48.97c0-1.25,0.45-2.4,1.37-3.46
				c0.92-1.06,2.14-1.59,3.68-1.59H281.87z"/>
			<path class="st3" d="M295.89,48.22c0-1.25,0.45-2.4,1.37-3.46c0.91-1.06,2.14-1.58,3.68-1.58c1.44,0,2.62,0.53,3.54,1.58
				c0.91,1.06,1.37,2.21,1.37,3.46V86h8.8V47.79c0-1.63-0.31-3.24-0.94-4.83c-0.63-1.59-1.54-3.03-2.74-4.33
				c-1.2-1.3-2.64-2.33-4.32-3.1c-1.68-0.77-3.58-1.15-5.7-1.15c-2.11,0-4.04,0.39-5.77,1.15c-1.73,0.77-3.2,1.8-4.4,3.1
				c-1.2,1.3-2.11,2.74-2.74,4.33c-0.63,1.59-0.94,3.2-0.94,4.83V86h8.8V48.22z"/>
			<polygon class="st3" points="180.69,77.2 180.69,22.69 171.89,22.69 171.89,86 193.24,86 193.24,86 193.24,77.64 193.24,77.2 			
				"/>
			<path class="st3" d="M225.06,43.1c-0.63-1.59-1.54-3.03-2.74-4.33c-1.2-1.3-2.65-2.33-4.32-3.1c-1.69-0.77-3.58-1.16-5.7-1.16
				c-2.11,0-4.04,0.39-5.77,1.16c-1.73,0.77-3.2,1.8-4.4,3.1c-1.2,1.3-2.12,2.74-2.74,4.33c-0.63,1.59-0.94,3.2-0.94,4.83v24.66
				c0,1.64,0.31,3.25,0.94,4.83c0.62,1.59,1.54,3.03,2.74,4.33c1.2,1.3,2.64,2.33,4.33,3.1c1.68,0.77,3.58,1.15,5.7,1.15h9.44v-8.8
				l-8.84,0c-2,0-3.26-0.33-3.99-1.01c-0.72-0.67-1.18-1.68-1.37-3.03c2.98-0.58,5.62-1.59,7.93-3.03c2.31-1.44,4.25-3.19,5.84-5.26
				c1.59-2.06,2.79-4.3,3.61-6.7c0.82-2.4,1.23-4.81,1.23-7.21v-3.03C226,46.3,225.68,44.69,225.06,43.1z M217.2,50.57
				c0,2.79-0.87,5.48-2.6,8.08c-1.73,2.6-4.18,4.42-7.35,5.48V48.37c0-1.25,0.45-2.4,1.37-3.46c0.92-1.06,2.14-1.59,3.68-1.59
				c1.44,0,2.62,0.53,3.53,1.59c0.92,1.06,1.37,2.21,1.37,3.46V50.57z"/>
			<path class="st3" d="M228.7,77.42c0.63,1.59,1.54,3.03,2.74,4.33c1.2,1.3,2.65,2.33,4.32,3.1c1.69,0.77,3.58,1.16,5.7,1.16
				c2.11,0,4.04-0.39,5.77-1.16c1.73-0.77,3.2-1.8,4.4-3.1c1.2-1.3,2.12-2.74,2.74-4.33c0.63-1.59,0.94-3.2,0.94-4.83V47.93
				c0-1.64-0.31-3.25-0.94-4.83c-0.62-1.59-1.54-3.03-2.74-4.33c-1.2-1.3-2.64-2.33-4.32-3.1c-1.68-0.77-3.58-1.15-5.7-1.15h-9.44
				v8.8l8.84,0c2,0,3.26,0.33,3.99,1.01c0.72,0.67,1.18,1.68,1.37,3.03c-2.98,0.58-5.62,1.59-7.93,3.03
				c-2.31,1.44-4.25,3.19-5.84,5.26c-1.59,2.06-2.79,4.3-3.61,6.7c-0.82,2.4-1.23,4.81-1.23,7.21v3.03
				C227.77,74.22,228.08,75.83,228.7,77.42z M236.56,69.95c0-2.79,0.87-5.48,2.6-8.08c1.73-2.6,4.18-4.42,7.35-5.48v15.75
				c0,1.25-0.45,2.4-1.37,3.46c-0.92,1.06-2.14,1.59-3.68,1.59c-1.44,0-2.62-0.53-3.53-1.59c-0.92-1.06-1.37-2.21-1.37-3.46V69.95z"
				/>
			<path class="st3" d="M383.44,48.22c0-1.25,0.45-2.4,1.37-3.46c0.91-1.06,2.14-1.58,3.68-1.58c1.44,0,2.62,0.53,3.54,1.58
				c0.91,1.06,1.37,2.21,1.37,3.46V86h8.8V47.79c0-1.63-0.31-3.24-0.94-4.83c-0.63-1.59-1.54-3.03-2.74-4.33
				c-1.2-1.3-2.64-2.33-4.32-3.1c-1.68-0.77-3.58-1.15-5.7-1.15c-2.11,0-4.04,0.39-5.77,1.15c-1.73,0.77-3.2,1.8-4.4,3.1
				c-1.2,1.3-2.11,2.74-2.74,4.33c-0.63,1.59-0.94,3.2-0.94,4.83V86h8.8V48.22z"/>
			<path class="st3" d="M427.01,21.97v12.69c-2.98,0.58-5.65,1.61-8,3.1c-2.36,1.49-4.33,3.27-5.91,5.34
				c-1.59,2.07-2.79,4.3-3.61,6.71c-0.82,2.4-1.23,4.81-1.23,7.21v15.43c0,1.63,0.31,3.27,0.94,4.9c0.62,1.64,1.54,3.1,2.74,4.4
				c1.2,1.3,2.67,2.33,4.4,3.1c1.73,0.77,3.65,1.15,5.77,1.15s4.02-0.39,5.7-1.15c1.68-0.77,3.12-1.8,4.32-3.1
				c1.2-1.3,2.11-2.76,2.74-4.4c0.62-1.63,0.94-3.27,0.94-4.9V21.97H427.01z M427.01,72.44c0,1.35-0.46,2.55-1.37,3.61
				c-0.91,1.06-2.09,1.58-3.54,1.58c-1.54,0-2.76-0.53-3.68-1.58c-0.92-1.06-1.37-2.26-1.37-3.61V57.01c0-2.79,0.86-5.48,2.59-8.08
				c1.73-2.6,4.18-4.42,7.35-5.48V72.44z"/>
			<path class="st3" d="M341.96,77.42c0.63,1.59,1.54,3.03,2.74,4.33c1.2,1.3,2.65,2.33,4.32,3.1c1.69,0.77,3.58,1.16,5.7,1.16
				c2.11,0,4.04-0.39,5.77-1.16c1.73-0.77,3.2-1.8,4.4-3.1c1.2-1.3,2.12-2.74,2.74-4.33c0.63-1.59,0.94-3.2,0.94-4.83V47.93
				c0-1.64-0.31-3.25-0.94-4.83c-0.62-1.59-1.54-3.03-2.74-4.33c-1.2-1.3-2.64-2.33-4.33-3.1c-1.68-0.77-3.58-1.15-5.7-1.15h-9.44
				v8.8l8.84,0c2,0,3.26,0.33,3.99,1.01c0.72,0.67,1.18,1.68,1.37,3.03c-2.98,0.58-5.62,1.59-7.93,3.03
				c-2.31,1.44-4.25,3.19-5.84,5.26c-1.59,2.06-2.79,4.3-3.61,6.7c-0.82,2.4-1.23,4.81-1.23,7.21v3.03
				C341.02,74.22,341.34,75.83,341.96,77.42z M349.82,69.95c0-2.79,0.87-5.48,2.6-8.08c1.73-2.6,4.18-4.42,7.35-5.48v15.75
				c0,1.25-0.45,2.4-1.37,3.46c-0.92,1.06-2.14,1.59-3.68,1.59c-1.44,0-2.62-0.53-3.53-1.59c-0.92-1.06-1.37-2.21-1.37-3.46V69.95z"
				/>
			<path class="st3" d="M427.01,21.97v12.7c-0.05,0.01-0.1,0.01-0.14,0.03c-2.98,0.58-5.62,1.59-7.93,3.03
				c-2.31,1.44-4.25,3.19-5.84,5.26c-1.59,2.06-2.79,4.3-3.61,6.7c-0.82,2.4-1.23,4.81-1.23,7.21v15.68c0,1.63,0.31,3.24,0.94,4.83
				c0.63,1.59,1.54,3.03,2.74,4.33c1.2,1.3,2.65,2.33,4.32,3.1c1.69,0.77,3.58,1.16,5.7,1.16c2.11,0,4.04-0.39,5.77-1.16
				c1.73-0.77,3.2-1.8,4.4-3.1c1.2-1.3,2.12-2.74,2.74-4.33c0.63-1.59,0.94-3.2,0.94-4.83V53.92v-5.99V21.97H427.01z M427.01,72.15
				c0,1.25-0.45,2.4-1.37,3.46c-0.92,1.06-2.14,1.58-3.68,1.58c-1.44,0-2.62-0.53-3.53-1.58c-0.91-1.06-1.37-2.21-1.37-3.46V57.29
				c0-2.79,0.87-5.48,2.6-8.08c1.73-2.6,4.18-4.42,7.35-5.48v10.18V72.15z"/>
		</g>
		<g>
			<rect x="273.99" y="111.6" class="st3" width="8.8" height="50.9"/>
			<polygon class="st3" points="333.02,139.46 327.46,110.88 318.5,110.88 328.53,162.5 328.54,162.5 337.5,162.5 337.5,162.5 
				347.54,110.88 338.57,110.88 			"/>
			<path class="st3" d="M193.16,99.2h-8.96h0l-12.31,63.31h8.96l2.61-13.42h10.44l2.61,13.42h8.96L193.16,99.2L193.16,99.2z
				 M185.17,140.28l3.51-18.05l3.51,18.05H185.17z"/>
			<path class="st3" d="M314.61,119.6c-0.63-1.59-1.54-3.03-2.74-4.33c-1.2-1.3-2.65-2.33-4.32-3.1c-1.69-0.77-3.58-1.16-5.7-1.16
				c-2.11,0-4.04,0.39-5.77,1.16c-1.73,0.77-3.2,1.8-4.4,3.1c-1.2,1.3-2.12,2.74-2.74,4.33c-0.63,1.59-0.94,3.2-0.94,4.83v24.66
				c0,1.64,0.31,3.25,0.94,4.83c0.62,1.59,1.54,3.03,2.74,4.33c1.2,1.3,2.64,2.33,4.32,3.1c1.68,0.77,3.58,1.15,5.7,1.15h9.44v-8.8
				l-8.84,0c-2,0-3.26-0.33-3.99-1.01c-0.72-0.67-1.18-1.68-1.37-3.03c2.98-0.58,5.62-1.59,7.93-3.03c2.31-1.44,4.25-3.19,5.84-5.26
				c1.59-2.06,2.79-4.3,3.61-6.7c0.82-2.4,1.23-4.81,1.23-7.21v-3.03C315.55,122.8,315.23,121.19,314.61,119.6z M306.75,127.07
				c0,2.79-0.87,5.48-2.6,8.08c-1.73,2.6-4.18,4.42-7.35,5.48v-15.75c0-1.25,0.45-2.4,1.37-3.46c0.92-1.06,2.14-1.59,3.68-1.59
				c1.44,0,2.62,0.53,3.53,1.59c0.92,1.06,1.37,2.21,1.37,3.46V127.07z"/>
			<path class="st3" d="M377.1,119.6c-0.63-1.59-1.54-3.03-2.74-4.33c-1.2-1.3-2.65-2.33-4.32-3.1c-1.69-0.77-3.58-1.16-5.7-1.16
				c-2.11,0-4.04,0.39-5.77,1.16c-1.73,0.77-3.2,1.8-4.4,3.1c-1.2,1.3-2.12,2.74-2.74,4.33c-0.63,1.59-0.94,3.2-0.94,4.83v24.66
				c0,1.64,0.31,3.25,0.94,4.83c0.62,1.59,1.54,3.03,2.74,4.33c1.2,1.3,2.64,2.33,4.32,3.1c1.68,0.77,3.58,1.15,5.7,1.15h9.44v-8.8
				l-8.84,0c-2,0-3.26-0.33-3.99-1.01c-0.72-0.67-1.18-1.68-1.37-3.03c2.98-0.58,5.62-1.59,7.93-3.03c2.31-1.44,4.25-3.19,5.84-5.26
				c1.59-2.06,2.79-4.3,3.61-6.7c0.82-2.4,1.23-4.81,1.23-7.21v-3.03C378.04,122.8,377.72,121.19,377.1,119.6z M369.24,127.07
				c0,2.79-0.87,5.48-2.6,8.08c-1.73,2.6-4.18,4.42-7.35,5.48v-15.75c0-1.25,0.45-2.4,1.37-3.46c0.92-1.06,2.14-1.59,3.68-1.59
				c1.44,0,2.62,0.53,3.53,1.59c0.92,1.06,1.37,2.21,1.37,3.46V127.07z"/>
			<path class="st3" d="M227.22,141.92v6.94c0,0.59-0.11,1.17-0.34,1.75c-0.23,0.57-0.56,1.09-0.99,1.56
				c-0.43,0.47-0.96,0.84-1.59,1.12c-0.63,0.28-1.32,0.42-2.08,0.42c-0.77,0-1.45-0.14-2.06-0.42c-0.61-0.28-1.13-0.65-1.56-1.12
				c-0.43-0.47-0.77-0.99-0.99-1.56c-0.23-0.57-0.34-1.15-0.34-1.75V123.8c0-0.59,0.11-1.17,0.34-1.75
				c0.23-0.57,0.56-1.09,0.99-1.56c0.43-0.47,0.95-0.84,1.56-1.12c0.61-0.28,1.29-0.42,2.06-0.42c0.76,0,1.46,0.15,2.08,0.44
				c0.63,0.3,1.15,0.68,1.59,1.15c0.43,0.47,0.76,0.99,0.99,1.56c0.23,0.57,0.34,1.16,0.34,1.75v6.88h8.8v-7.02
				c0-1.63-0.31-3.24-0.94-4.83c-0.63-1.59-1.54-3.03-2.74-4.33c-1.2-1.3-2.67-2.35-4.4-3.17c-1.73-0.82-3.65-1.23-5.77-1.23
				c-2.12,0-4.01,0.39-5.7,1.15c-1.68,0.77-3.13,1.8-4.32,3.1c-1.2,1.3-2.12,2.74-2.74,4.33c-0.63,1.59-0.94,3.2-0.94,4.83v25.52
				c0,1.63,0.31,3.24,0.94,4.83c0.62,1.59,1.54,3.03,2.74,4.33c1.2,1.3,2.64,2.33,4.32,3.1c1.68,0.77,3.58,1.15,5.7,1.15
				c2.11,0,4.04-0.39,5.77-1.15c1.73-0.77,3.2-1.8,4.4-3.1c1.2-1.3,2.11-2.74,2.74-4.33c0.62-1.59,0.94-3.2,0.94-4.83v-7.17H227.22z
				"/>
			<path class="st3" d="M267.84,119.6c-0.63-1.59-1.54-3.03-2.74-4.33c-1.2-1.3-2.67-2.35-4.4-3.17c-1.73-0.82-3.65-1.23-5.77-1.23
				c-1.8,0-3.42,0.29-4.9,0.85V99.2h-8.8v25.09v6.48v31.74h8.8v-31.74v-6.25c0-0.59,0.11-1.17,0.34-1.75
				c0.23-0.57,0.56-1.09,0.99-1.56c0.43-0.47,0.95-0.84,1.56-1.12c0.61-0.28,1.29-0.42,2.06-0.42c0.76,0,1.46,0.15,2.08,0.44
				c0.63,0.3,1.15,0.68,1.59,1.15c0.43,0.47,0.76,0.99,0.99,1.56c0.23,0.57,0.34,1.16,0.34,1.75v3.83v2.36v31.74h8.8v-31.74v-2.36
				v-3.97C268.78,122.8,268.46,121.19,267.84,119.6z"/>
			<g>
				<polygon class="st3" points="273.99,111.6 273.99,128.9 273.99,145.2 273.99,162.5 282.79,162.5 282.79,145.2 282.79,128.9 
					282.79,111.6 				"/>
				<polygon class="st3" points="282.78,107.99 282.78,99.2 277.82,99.2 273.99,99.2 273.99,107.99 277.82,107.99 				"/>
			</g>
		</g>
	</g>
</g>
</svg>
