<svg width="18" height="18" viewBox="0 0 18 18" fill="none" xmlns="http://www.w3.org/2000/svg">
<path d="M13.2552 7.10723C13.392 6.82831 13.2768 6.4913 12.9979 6.35449C12.7189 6.21767 12.3819 6.33287 12.2451 6.61178L11.1499 8.84456C10.8104 9.53666 9.8126 9.50283 9.52078 8.78936C8.86138 7.17759 6.60729 7.10123 5.84036 8.66471L4.74511 10.8975C4.6083 11.1764 4.72349 11.5134 5.0024 11.6502C5.28131 11.787 5.61832 11.6718 5.75514 11.3929L6.85039 9.16016C7.18987 8.46806 8.18765 8.50188 8.47948 9.21536C9.13888 10.8271 11.3929 10.9035 12.1599 9.34001L13.2552 7.10723Z" fill="white"/>
<path fill-rule="evenodd" clip-rule="evenodd" d="M12.3476 1.7803C11.491 1.68749 10.4114 1.68749 9.0339 1.6875H8.9661C7.58865 1.68749 6.50896 1.68749 5.65236 1.7803C4.7782 1.87501 4.06992 2.07174 3.46518 2.51111C3.09907 2.77711 2.77711 3.09907 2.51111 3.46518C2.07174 4.06992 1.87501 4.7782 1.7803 5.65236C1.68749 6.50896 1.68749 7.58865 1.6875 8.9661V9.0339C1.68749 10.4114 1.68749 11.491 1.7803 12.3476C1.87501 13.2218 2.07174 13.9301 2.51111 14.5349C2.77711 14.9009 3.09907 15.2229 3.46518 15.4888C4.06992 15.9283 4.7782 16.125 5.65236 16.2197C6.50894 16.3125 7.58865 16.3125 8.96603 16.3125H9.03397C10.4113 16.3125 11.491 16.3125 12.3476 16.2197C13.2218 16.125 13.9301 15.9283 14.5349 15.4888C14.9009 15.2229 15.2229 14.9009 15.4888 14.5349C15.9283 13.9301 16.125 13.2218 16.2197 12.3476C16.3125 11.491 16.3125 10.4113 16.3125 9.03397V8.96603C16.3125 7.58865 16.3125 6.50894 16.2197 5.65236C16.125 4.7782 15.9283 4.06992 15.4888 3.46518C15.2229 3.09907 14.9009 2.77711 14.5349 2.51111C13.9301 2.07174 13.2218 1.87501 12.3476 1.7803ZM4.12643 3.42126C4.50744 3.14444 4.9951 2.98309 5.77353 2.89875C6.56249 2.81327 7.5813 2.8125 9 2.8125C10.4187 2.8125 11.4375 2.81327 12.2265 2.89875C13.0049 2.98309 13.4926 3.14444 13.8736 3.42126C14.1442 3.61787 14.3821 3.85583 14.5787 4.12643C14.8555 4.50744 15.0169 4.9951 15.1012 5.77353C15.1868 6.56249 15.1875 7.5813 15.1875 9C15.1875 10.4187 15.1868 11.4375 15.1012 12.2265C15.0169 13.0049 14.8555 13.4926 14.5787 13.8736C14.3821 14.1442 14.1442 14.3821 13.8736 14.5787C13.4926 14.8555 13.0049 15.0169 12.2265 15.1012C11.4375 15.1868 10.4187 15.1875 9 15.1875C7.5813 15.1875 6.56249 15.1868 5.77353 15.1012C4.9951 15.0169 4.50744 14.8555 4.12643 14.5787C3.85583 14.3821 3.61787 14.1442 3.42126 13.8736C3.14444 13.4926 2.98309 13.0049 2.89875 12.2265C2.81327 11.4375 2.8125 10.4187 2.8125 9C2.8125 7.5813 2.81327 6.56249 2.89875 5.77353C2.98309 4.9951 3.14444 4.50744 3.42126 4.12643C3.61787 3.85583 3.85583 3.61787 4.12643 3.42126Z" fill="white"/>
</svg>
