<svg width="20" height="20" viewBox="0 0 20 20" fill="none" xmlns="http://www.w3.org/2000/svg">
<path fill-rule="evenodd" clip-rule="evenodd" d="M6.79605 12.8749C6.79605 12.5297 7.07588 12.2499 7.42105 12.2499H11.9211C12.2662 12.2499 12.5461 12.5297 12.5461 12.8749C12.5461 13.22 12.2662 13.4999 11.9211 13.4999H7.42105C7.07588 13.4999 6.79605 13.22 6.79605 12.8749Z" fill="white"/>
<path fill-rule="evenodd" clip-rule="evenodd" d="M6.79532 9.5321C6.79532 9.18694 7.07514 8.9071 7.42032 8.9071H10.217C10.5622 8.9071 10.842 9.18694 10.842 9.5321C10.842 9.87727 10.5622 10.1571 10.217 10.1571H7.42032C7.07514 10.1571 6.79532 9.87727 6.79532 9.5321Z" fill="white"/>
<path fill-rule="evenodd" clip-rule="evenodd" d="M4.10866 3.56037C5.3852 2.1524 7.36509 1.66663 10.0332 1.66663C10.8054 1.66663 11.5177 1.70948 12.1597 1.79741C12.2897 1.81523 12.4108 1.87353 12.5058 1.96404L17.2308 6.46404C17.3268 6.55543 17.3912 6.67494 17.4148 6.80534C17.5818 7.7281 17.6582 8.79254 17.6582 9.99996C17.6582 12.9165 17.2259 15.0544 15.9646 16.4431C14.6867 17.85 12.7045 18.3333 10.0332 18.3333C7.3657 18.3333 5.38558 17.8499 4.10884 16.4429C2.84874 15.0542 2.41647 12.9165 2.41647 9.99996C2.41647 7.08729 2.84884 4.94989 4.10866 3.56037ZM5.03471 4.39997C4.10911 5.42086 3.66647 7.13763 3.66647 9.99996C3.66647 12.8667 4.10921 14.5832 5.03452 15.6029C5.9432 16.6042 7.45891 17.0833 10.0332 17.0833C12.6117 17.0833 14.1296 16.6041 15.0392 15.6026C15.9654 14.583 16.4082 12.8668 16.4082 9.99996C16.4082 8.93204 16.3457 8.01148 16.2187 7.22633L11.7922 3.01064C11.2666 2.94848 10.6787 2.91663 10.0332 2.91663C7.45952 2.91663 5.94359 3.39752 5.03471 4.39997Z" fill="white"/>
<path fill-rule="evenodd" clip-rule="evenodd" d="M11.6118 1.7356C11.957 1.7356 12.2368 2.01542 12.2368 2.3606V4.5781C12.2368 5.78101 13.2117 6.7556 14.4152 6.7556H16.8743C17.2195 6.7556 17.4993 7.03542 17.4993 7.3806C17.4993 7.72577 17.2195 8.0056 16.8743 8.0056H14.4152C12.5219 8.0056 10.9868 6.47185 10.9868 4.5781V2.3606C10.9868 2.01542 11.2666 1.7356 11.6118 1.7356Z" fill="white"/>
</svg>
