<svg width="20" height="20" viewBox="0 0 20 20" fill="none" xmlns="http://www.w3.org/2000/svg">
<path fill-rule="evenodd" clip-rule="evenodd" d="M1.94112 5.9705C2.09549 5.66177 2.47091 5.53663 2.77964 5.691L10.0002 9.30123L17.2207 5.691C17.5293 5.53663 17.9048 5.66177 18.0592 5.9705C18.2135 6.27925 18.0884 6.65466 17.7797 6.80903L10.6252 10.3863V17.9166C10.6252 18.2619 10.3453 18.5416 10.0002 18.5416C9.655 18.5416 9.37517 18.2619 9.37517 17.9166V10.3863L2.22063 6.80903C1.91189 6.65466 1.78675 6.27925 1.94112 5.9705Z" fill="white"/>
<path fill-rule="evenodd" clip-rule="evenodd" d="M9.00162 2.53209C8.56996 2.71063 8.05039 2.9826 7.30896 3.37169L5.64229 4.24632C4.73422 4.72285 4.09623 5.05856 3.61956 5.37689C3.15602 5.68646 2.88818 5.95243 2.70302 6.26688C2.51681 6.58311 2.40808 6.9588 2.35084 7.53977C2.29233 8.13379 2.29163 8.88696 2.29163 9.95121V10.0487C2.29163 11.113 2.29233 11.8661 2.35084 12.4601C2.40808 13.0411 2.51681 13.4168 2.70302 13.733C2.88818 14.0475 3.15602 14.3135 3.61956 14.623C4.09623 14.9414 4.73422 15.277 5.64229 15.7536L7.30896 16.6282C8.05039 17.0173 8.56996 17.2893 9.00162 17.4678C9.42179 17.6416 9.71704 17.7083 9.99996 17.7083C10.2829 17.7083 10.5781 17.6416 10.9983 17.4678C11.43 17.2893 11.9495 17.0173 12.691 16.6282L14.3576 15.7536C15.2657 15.277 15.9037 14.9414 16.3804 14.623C16.8439 14.3135 17.1117 14.0475 17.2969 13.733C17.4831 13.4168 17.5919 13.0411 17.649 12.4601C17.7076 11.8661 17.7083 11.113 17.7083 10.0487V9.95121C17.7083 8.88696 17.7076 8.13379 17.649 7.53977C17.5919 6.9588 17.4831 6.58311 17.2969 6.26688C17.1117 5.95243 16.8439 5.68646 16.3804 5.37689C15.9037 5.05856 15.2657 4.72286 14.3576 4.24632L12.691 3.37169C11.9495 2.9826 11.43 2.71063 10.9983 2.53209C10.5781 2.35833 10.2829 2.29163 9.99996 2.29163C9.71704 2.29163 9.42179 2.35833 9.00162 2.53209ZM8.52396 1.37698C9.03196 1.16687 9.49604 1.04163 9.99996 1.04163C10.5039 1.04163 10.968 1.16687 11.476 1.37698C11.9665 1.57987 12.5364 1.87889 13.2459 2.25124L14.9688 3.15537C15.8396 3.61234 16.5365 3.97804 17.0745 4.33738C17.632 4.70966 18.0614 5.10163 18.374 5.63261C18.6856 6.1618 18.8258 6.73482 18.893 7.41722C18.9583 8.0796 18.9583 8.89421 18.9583 9.91871V10.0812C18.9583 11.1057 18.9583 11.9203 18.893 12.5827C18.8258 13.2651 18.6856 13.8381 18.374 14.3673C18.0614 14.8983 17.632 15.2903 17.0745 15.6625C16.5365 16.0219 15.8396 16.3875 14.9688 16.8445L13.2459 17.7487C12.5364 18.121 11.9665 18.42 11.476 18.623C10.968 18.833 10.5039 18.9583 9.99996 18.9583C9.49604 18.9583 9.03196 18.833 8.52396 18.623C8.03335 18.42 7.46354 18.121 6.75401 17.7487L5.03107 16.8445C4.16028 16.3875 3.46342 16.0219 2.92535 15.6625C2.36791 15.2903 1.93856 14.8983 1.62589 14.3673C1.31428 13.8381 1.17409 13.2651 1.10687 12.5827C1.04161 11.9203 1.04162 11.1056 1.04163 10.0811V9.91879C1.04162 8.89429 1.04161 8.07961 1.10687 7.41722C1.17409 6.73482 1.31428 6.1618 1.62589 5.63261C1.93856 5.10163 2.36791 4.70966 2.92535 4.33738C3.46343 3.97805 4.16031 3.61235 5.03112 3.15538L6.75404 2.25123C7.46357 1.87888 8.03336 1.57986 8.52396 1.37698Z" fill="white"/>
</svg>
