<svg width="18" height="18" viewBox="0 0 18 18" fill="none" xmlns="http://www.w3.org/2000/svg">
<g clip-path="url(#clip0_704_1455)">
<path d="M6.61606 11.3809C6.75324 11.5181 6.92809 11.5825 7.10195 11.5825C7.27582 11.5825 7.45066 11.5181 7.58784 11.3809L11.3828 7.58589C11.511 7.45771 11.5845 7.28353 11.5845 7.1C11.5845 6.91647 11.511 6.74229 11.3828 6.61411C10.7444 5.9757 9.89514 5.625 8.99945 5.625C7.13792 5.625 5.62695 7.13596 5.62695 8.9975C5.62695 9.89319 5.97765 10.7425 6.61606 11.3809ZM9.84025 7.18493L7.18688 9.8383C7.06641 9.5792 7.00195 9.29346 7.00195 8.9975C7.00195 7.89654 7.89849 7 8.99945 7C9.29541 7 9.58115 7.06446 9.84025 7.18493Z" fill="#D0D0D0" stroke="#D0D0D0" stroke-width="0.25"/>
<path d="M1.58855 6.6821L1.58856 6.68209C3.43588 3.78998 6.13421 2.10938 8.99891 2.10938C10.6784 2.10938 12.3319 2.68967 13.7766 3.777L13.7769 3.77724C14.0782 4.00547 14.1437 4.43608 13.9135 4.73986C13.6853 5.0411 13.2548 5.10663 12.951 4.87658C11.7407 3.96146 10.3718 3.48438 8.99891 3.48438C6.62977 3.48438 4.34775 4.90756 2.74433 7.42405L2.74414 7.42433C2.47924 7.83757 2.34203 8.4141 2.34203 8.99938C2.34203 9.58465 2.47924 10.1612 2.74414 10.5744C3.30091 11.443 3.93822 12.191 4.64058 12.7973L4.641 12.7976C4.92452 13.0446 4.96116 13.4745 4.71492 13.7669C4.58453 13.9249 4.39085 14.0069 4.19891 14.0069C4.0435 14.0069 3.87924 13.9524 3.75024 13.8419C3.75018 13.8419 3.75012 13.8418 3.75006 13.8418L3.83141 13.7469C3.02891 13.0644 2.30891 12.2244 1.69391 11.2494L1.58855 6.6821ZM1.58855 6.6821C1.17551 7.32894 0.972656 8.16926 0.972656 9.00219C0.972656 9.83489 1.17541 10.6733 1.58846 11.3165L1.58855 6.6821Z" fill="#D0D0D0" stroke="#D0D0D0" stroke-width="0.25"/>
<path d="M6.57343 14.0125L6.57377 14.0126C7.35383 14.3438 8.16977 14.5127 8.99245 14.5127C11.3616 14.5127 13.6436 13.0895 15.247 10.573L15.2472 10.5727C15.5121 10.1595 15.6493 9.58295 15.6493 8.99768C15.6493 8.41241 15.5121 7.83588 15.2472 7.42264L15.2468 7.42201C15.0171 7.05885 14.765 6.71046 14.4982 6.38433L14.4979 6.384C14.2584 6.08925 14.3066 5.65951 14.5968 5.41464L14.5986 5.41315L14.5986 5.41317C14.8914 5.17528 15.3225 5.21206 15.5692 5.51352L15.5695 5.51386C15.8646 5.87704 16.1524 6.27093 16.4104 6.68054C16.8234 7.32373 17.0262 8.16215 17.0262 8.99487C17.0262 9.8278 16.8233 10.6681 16.4103 11.315L16.4103 11.315C14.563 14.2071 11.8646 15.8877 8.99995 15.8877C7.98525 15.8877 6.99376 15.6816 6.04142 15.2779L6.57343 14.0125ZM6.57343 14.0125C6.22461 13.8656 5.82143 14.0307 5.67472 14.3792C5.52789 14.7279 5.6929 15.131 6.04113 15.2778L6.57343 14.0125Z" fill="#D0D0D0" stroke="#D0D0D0" stroke-width="0.25"/>
<path d="M8.839 11.7686C8.90324 12.099 9.19605 12.3273 9.51671 12.3273C9.53016 12.3273 9.54225 12.3266 9.55209 12.3259C9.55695 12.3256 9.5606 12.3253 9.56377 12.3251C9.56816 12.3248 9.57163 12.3245 9.57614 12.3243C9.58819 12.3236 9.5932 12.324 9.59719 12.3248L9.62085 12.3296L9.64457 12.3252C10.9849 12.0758 12.0598 11.009 12.3095 9.66061C12.3827 9.28375 12.1339 8.92741 11.7606 8.85458L11.7607 8.85455L11.7577 8.85405C11.3855 8.79049 11.0274 9.02709 10.954 9.40333L10.954 9.40333L10.9537 9.40491C10.8131 10.1785 10.1635 10.8282 9.38997 10.9692C9.01365 11.0338 8.76567 11.3925 8.839 11.7686ZM8.839 11.7686L8.96153 11.7448L8.83902 11.7687C8.83901 11.7687 8.83901 11.7687 8.839 11.7686Z" fill="#D0D0D0" stroke="#D0D0D0" stroke-width="0.25"/>
<path d="M7.58845 10.4107C7.32215 10.1444 6.883 10.1444 6.61669 10.4107L1.01419 16.0132C0.747874 16.2795 0.747874 16.7186 1.01419 16.9849C1.15137 17.1221 1.32621 17.1866 1.50008 17.1866C1.67394 17.1866 1.84879 17.1221 1.98597 16.9849L1.98597 16.9849L7.58814 11.3823L7.49976 11.2939L7.58815 11.3823C7.85437 11.1161 7.85485 10.6771 7.58845 10.4107ZM7.58845 10.4107L7.50013 10.499L7.58844 10.4107C7.58845 10.4107 7.58845 10.4107 7.58845 10.4107Z" fill="#D0D0D0" stroke="#D0D0D0" stroke-width="0.25"/>
<path d="M10.4107 7.58651L10.4107 7.58653C10.5479 7.72366 10.7227 7.7881 10.8966 7.7881C11.0703 7.7881 11.2454 7.7238 11.3827 7.58656L11.2943 7.49817L11.3827 7.58656L16.985 1.98401C17.2513 1.7177 17.2513 1.27855 16.985 1.01224C16.7186 0.745921 16.2795 0.745921 16.0132 1.01224L10.4107 6.61474C10.1444 6.88105 10.1444 7.3202 10.4107 7.58651Z" fill="#D0D0D0" stroke="#D0D0D0" stroke-width="0.25"/>
</g>
<defs>
<clipPath id="clip0_704_1455">
<rect width="18" height="18" fill="white"/>
</clipPath>
</defs>
</svg>
