<svg width="60" height="77" viewBox="0 0 60 77" fill="none" xmlns="http://www.w3.org/2000/svg">
<path d="M39.9038 35.2408H22.4346C20.9283 35.2408 19.707 34.036 19.707 32.5501C19.707 31.0641 20.9283 29.8594 22.4346 29.8594H39.9038C41.4101 29.8594 42.6314 31.0641 42.6314 32.5501C42.6314 34.036 41.4104 35.2408 39.9038 35.2408Z" fill="#7B7B7B"/>
<path d="M40.8585 30.0391C40.9695 30.3322 41.0332 30.6481 41.0332 30.9797C41.0332 32.4656 39.8119 33.6704 38.3056 33.6704H20.8364C20.5005 33.6704 20.18 33.6076 19.8828 33.4981C20.2699 34.5196 21.2653 35.2482 22.4357 35.2482H39.905C41.4112 35.2482 42.6325 34.0434 42.6325 32.5575C42.6325 31.4029 41.8939 30.4209 40.8585 30.0391Z" fill="#6D6B6B"/>
<path d="M50.3653 4.4375H11.9805V21.747C11.9805 22.8653 12.5802 23.9 13.5574 24.4668L22.8562 29.8627H39.4896L48.7883 24.4668C49.7652 23.8997 50.3653 22.865 50.3653 21.747V4.4375Z" fill="#004080"/>
<path d="M13.8976 19.6791C13.5444 19.6791 13.2578 19.3964 13.2578 19.048V8.95038C13.2578 8.60201 13.5444 8.31928 13.8976 8.31928C14.2507 8.31928 14.5373 8.60201 14.5373 8.95038V19.048C14.5373 19.3967 14.2507 19.6791 13.8976 19.6791ZM13.8976 7.05708C13.5444 7.05708 13.2578 6.77434 13.2578 6.42598V6.34204C13.2578 5.99367 13.5444 5.71094 13.8976 5.71094C14.2507 5.71094 14.5373 5.99367 14.5373 6.34204V6.42598C14.5373 6.77466 14.2507 7.05708 13.8976 7.05708Z" fill="#014C98"/>
<path d="M47.1652 4.4375V18.5915C47.1652 19.7098 46.5654 20.7445 45.5882 21.3113L36.2895 26.7072H19.6561L12.0312 22.2825C12.1896 23.1875 12.7378 23.9919 13.5561 24.4668L22.8548 29.8627H39.4882L48.7869 24.4668C49.7638 23.8997 50.3639 22.865 50.3639 21.747V4.4375H47.1652Z" fill="#00386F"/>
<path d="M48.7648 4.4375V20.1693C48.7648 21.2876 48.165 22.3223 47.1878 22.889L37.8891 28.2849H21.2557L12.2852 23.0796C12.5545 23.6485 12.9892 24.1376 13.556 24.4668L22.8547 29.8627H39.4881L48.7869 24.4668C49.7638 23.8997 50.3638 22.865 50.3638 21.747V4.4375H48.7648Z" fill="#002C58"/>
<path d="M52.4055 4.43974H9.93716C8.76834 4.43974 7.82056 3.44605 7.82056 2.21987C7.82056 0.994027 8.76802 0 9.93716 0H52.4055C53.5743 0 54.5221 0.993691 54.5221 2.21987C54.5221 3.44605 53.5743 4.43974 52.4055 4.43974Z" fill="#7B7B7B"/>
<path d="M53.5463 0.601562C53.7577 0.92658 53.8821 1.31218 53.8821 1.72713C53.8821 2.88015 52.9347 3.81513 51.7655 3.81513H9.29724C8.87661 3.81513 8.48572 3.6927 8.15625 3.4838C8.53274 4.06189 9.1888 4.44623 9.93699 4.44623H52.4056C53.5744 4.44623 54.5222 3.51157 54.5222 2.35823C54.5219 1.62016 54.1326 0.972966 53.5463 0.601562Z" fill="#6D6B6B"/>
<path d="M24.7734 4.4375H37.5684V29.8627H24.7734V4.4375Z" fill="#F1F2F2"/>
<path d="M24.7734 28.2812H37.5684V29.859H24.7734V28.2812Z" fill="#E6E7E8"/>
<path d="M50.3653 64.5924V46.374C50.3653 45.2466 49.7556 44.2049 48.7659 43.6414L32.7722 34.5321C31.7825 33.9685 30.5632 33.9685 29.5735 34.5321L13.5798 43.6414C12.5901 44.2049 11.9805 45.2469 11.9805 46.374V64.5924C11.9805 65.7198 12.5901 66.7615 13.5798 67.325L29.5735 76.4343C30.5632 76.9979 31.7825 76.9979 32.7722 76.4343L48.7659 67.325C49.7556 66.7615 50.3653 65.7198 50.3653 64.5924Z" fill="#FFD13D"/>
<path d="M48.7634 43.6417L48.4602 43.4688C48.6534 43.879 48.7634 44.3289 48.7634 44.7966V63.0149C48.7634 64.1424 48.1538 65.184 47.1641 65.7476L31.1704 74.8566C30.1807 75.4201 28.9614 75.4201 27.9717 74.8566L12.2812 65.9202C12.5541 66.4989 12.9981 66.9953 13.5774 67.325L29.571 76.434C30.5607 76.9976 31.7801 76.9976 32.7698 76.434L48.7634 67.325C49.7531 66.7614 50.3628 65.7195 50.3628 64.5923V46.374C50.3628 45.2469 49.7531 44.2052 48.7634 43.6417Z" fill="#EEBB1D"/>
<path d="M45.9331 62.0636V48.8903C45.9331 47.7628 45.3234 46.7212 44.3337 46.1576L32.7691 39.5711C31.7794 39.0075 30.56 39.0075 29.5703 39.5711L18.0056 46.1576C17.0159 46.7212 16.4062 47.7631 16.4062 48.8903V62.0636C16.4062 63.191 17.0159 64.2327 18.0056 64.7962L29.5703 71.3827C30.56 71.9463 31.7794 71.9463 32.7691 71.3827L44.3337 64.7962C45.3234 64.2327 45.9331 63.191 45.9331 62.0636Z" fill="#F6821F"/>
<path d="M44.3352 46.1651L44.032 45.9922C44.2252 46.4024 44.3352 46.8524 44.3352 47.32V60.4933C44.3352 61.6208 43.7255 62.6624 42.7358 63.226L31.1711 69.8125C30.1814 70.3761 28.9621 70.3761 27.9724 69.8125L16.7109 63.3986C16.9838 63.9773 17.4278 64.4737 18.0071 64.8034L29.5718 71.3899C30.5615 71.9535 31.7808 71.9535 32.7705 71.3899L44.3352 64.8034C45.3249 64.2399 45.9346 63.1979 45.9346 62.0708V48.8975C45.9346 47.7703 45.3249 46.7287 44.3352 46.1651Z" fill="#E4710F"/>
<path d="M31.7783 46.8815L33.7257 52.7936H40.0275C40.6471 52.7936 40.9049 53.5759 40.4037 53.9353L35.3055 57.5894L37.2529 63.5015C37.4445 64.0831 36.7699 64.5665 36.2684 64.2071L31.1702 60.553L26.0721 64.2071C25.5708 64.5665 24.8962 64.0831 25.0875 63.5015L27.0349 57.5894L21.9368 53.9353C21.4355 53.5759 21.693 52.7936 22.3129 52.7936H28.6144L30.5618 46.8815C30.7528 46.2999 31.5867 46.2999 31.7783 46.8815Z" fill="white"/>
<path d="M4.29283 56.6929L4.49691 57.6307C4.71155 58.6162 5.49172 59.3858 6.49068 59.5975L7.44134 59.7989C7.67069 59.8474 7.67069 60.1699 7.44134 60.2185L6.49068 60.4199C5.49172 60.6316 4.71155 61.4012 4.49691 62.3867L4.29283 63.3245C4.24357 63.5507 3.91666 63.5507 3.8674 63.3245L3.66332 62.3867C3.44869 61.4012 2.66851 60.6316 1.66955 60.4199L0.718887 60.2185C0.489538 60.1699 0.489538 59.8474 0.718887 59.7989L1.66955 59.5975C2.66851 59.3858 3.44869 58.6162 3.66332 57.6307L3.8674 56.6929C3.91666 56.467 4.24357 56.467 4.29283 56.6929Z" fill="#FFC91D"/>
<path d="M8.37949 66.2407L8.67857 67.6149C8.99301 69.0589 10.1362 70.1866 11.6 70.4968L12.993 70.7919C13.3289 70.8629 13.3289 71.3359 12.993 71.4069L11.6 71.7019C10.1362 72.0121 8.99301 73.1399 8.67857 74.5838L8.37949 75.9581C8.30752 76.2894 7.82803 76.2894 7.75606 75.9581L7.45698 74.5838C7.14254 73.1399 5.99931 72.0121 4.53557 71.7019L3.14253 71.4069C2.80666 71.3359 2.80666 70.8629 3.14253 70.7919L4.53557 70.4968C5.99931 70.1866 7.14254 69.0589 7.45698 67.6149L7.75606 66.2407C7.82803 65.9094 8.30752 65.9094 8.37949 66.2407Z" fill="#FFC91D"/>
<path d="M54.8708 36.1763L55.1302 37.3685C55.4027 38.6209 56.3946 39.5991 57.6642 39.8682L58.8727 40.1242C59.1641 40.186 59.1641 40.5959 58.8727 40.6578L57.6642 40.9137C56.3946 41.1825 55.403 42.161 55.1302 43.4135L54.8708 44.6056C54.8081 44.8931 54.3926 44.8931 54.3299 44.6056L54.0704 43.4135C53.7979 42.161 52.806 41.1828 51.5364 40.9137L50.3279 40.6578C50.0365 40.5959 50.0365 40.186 50.3279 40.1242L51.5364 39.8682C52.806 39.5994 53.7976 38.6209 54.0704 37.3685L54.3299 36.1763C54.3926 35.8891 54.8081 35.8891 54.8708 36.1763Z" fill="#FFC91D"/>
</svg>
