<svg width="20" height="20" viewBox="0 0 20 20" fill="none" xmlns="http://www.w3.org/2000/svg">
<path d="M9.99999 18.4C9.74999 18.4 9.49999 18.3417 9.29165 18.225C7.73332 17.375 4.99166 16.475 3.27499 16.25L3.03332 16.2167C1.94166 16.0834 1.04166 15.0584 1.04166 13.95V3.88338C1.04166 3.22505 1.29999 2.62505 1.77499 2.19171C2.24999 1.75838 2.86666 1.55005 3.51666 1.60838C5.34999 1.75005 8.11666 2.66671 9.68332 3.65005L9.88332 3.76671C9.94166 3.80005 10.0667 3.80005 10.1167 3.77505L10.25 3.69171C11.8167 2.70838 14.5833 1.77505 16.425 1.61671H16.525C17.1333 1.55838 17.7583 1.77505 18.225 2.20838C18.7 2.64171 18.9583 3.24171 18.9583 3.90005V13.9584C18.9583 15.075 18.0583 16.0917 16.9583 16.225L16.6833 16.2584C14.9667 16.4834 12.2167 17.3917 10.6917 18.2334C10.4917 18.35 10.25 18.4 9.99999 18.4ZM3.31666 2.85005C3.04999 2.85005 2.80832 2.94171 2.61666 3.11671C2.40832 3.30838 2.29166 3.58338 2.29166 3.88338V13.95C2.29166 14.4417 2.71666 14.9167 3.19166 14.9834L3.44166 15.0167C5.31666 15.2667 8.19166 16.2084 9.85832 17.1167C9.93332 17.15 10.0417 17.1584 10.0833 17.1417C11.75 16.2167 14.6417 15.2667 16.525 15.0167L16.8083 14.9834C17.2833 14.925 17.7083 14.4417 17.7083 13.95V3.89171C17.7083 3.58338 17.5917 3.31671 17.3833 3.11671C17.1667 2.92505 16.8917 2.83338 16.5833 2.85005C16.5667 2.85005 16.5 2.85005 16.4833 2.85005C14.8917 2.99171 12.325 3.85005 10.925 4.72505L10.7917 4.81671C10.3333 5.10005 9.68332 5.10005 9.24166 4.82505L9.04166 4.70838C7.61666 3.83338 5.04999 2.98338 3.41666 2.85005C3.38332 2.85005 3.34999 2.85005 3.31666 2.85005Z" fill="white"/>
<path d="M10 17.7001C9.65833 17.7001 9.375 17.4167 9.375 17.0751V4.57507C9.375 4.23341 9.65833 3.95007 10 3.95007C10.3417 3.95007 10.625 4.23341 10.625 4.57507V17.0751C10.625 17.4251 10.3417 17.7001 10 17.7001Z" fill="white"/>
<path d="M6.45831 7.70007H4.58331C4.24165 7.70007 3.95831 7.41674 3.95831 7.07507C3.95831 6.73341 4.24165 6.45007 4.58331 6.45007H6.45831C6.79998 6.45007 7.08331 6.73341 7.08331 7.07507C7.08331 7.41674 6.79998 7.70007 6.45831 7.70007Z" fill="white"/>
<path d="M7.08331 10.2001H4.58331C4.24165 10.2001 3.95831 9.91674 3.95831 9.57507C3.95831 9.23341 4.24165 8.95007 4.58331 8.95007H7.08331C7.42498 8.95007 7.70831 9.23341 7.70831 9.57507C7.70831 9.91674 7.42498 10.2001 7.08331 10.2001Z" fill="white"/>
</svg>
