<svg width="20" height="20" viewBox="0 0 20 20" fill="none" xmlns="http://www.w3.org/2000/svg">
<path d="M9.2487 1.04688C6.41905 1.04688 4.22973 3.5269 4.58071 6.33467L4.64683 6.86372C4.7436 7.63784 4.46082 8.41112 3.88748 8.94012C2.69941 10.0365 2.36934 11.7815 3.07488 13.236L3.16101 13.4135C3.81865 14.7693 5.19306 15.6302 6.69992 15.6302H13.5506C14.8504 15.6302 16.06 14.9662 16.7579 13.8696C17.743 12.3218 17.4821 10.2912 16.1377 9.04271L16.1011 9.00871C15.8231 8.75054 15.6089 8.43921 15.4671 8.09843C15.4092 7.95927 15.3634 7.81523 15.3303 7.66794C15.2545 7.33118 14.9201 7.11959 14.5834 7.19535C14.2466 7.27111 14.035 7.60552 14.1108 7.94227C14.1598 8.16002 14.2274 8.37296 14.313 8.57863C14.5227 9.08237 14.8395 9.54296 15.2505 9.92463L15.2871 9.95862C16.1894 10.7966 16.3646 12.1595 15.7034 13.1985C15.2349 13.9345 14.423 14.3802 13.5506 14.3802H6.69992C5.67195 14.3802 4.73432 13.7929 4.28568 12.868L4.19955 12.6905C3.73448 11.7317 3.95206 10.5815 4.73519 9.85879C5.60499 9.05612 6.03398 7.88308 5.88718 6.70867L5.82105 6.17963C5.56334 4.11792 7.17092 2.29688 9.2487 2.29688H10.6678C11.2821 2.29688 11.853 2.45511 12.3473 2.73033C12.6488 2.89827 13.0294 2.78992 13.1974 2.48835C13.3653 2.18678 13.2569 1.80617 12.9554 1.63823C12.2799 1.26206 11.5003 1.04688 10.6678 1.04688H9.2487Z" fill="black"/>
<path d="M8.15238 17.125C7.94527 16.8489 7.55352 16.793 7.27738 17C7.00124 17.2071 6.94527 17.5989 7.15238 17.875L7.40238 18.2084C8.77738 20.0417 11.5274 20.0417 12.9024 18.2084L13.1524 17.875C13.3595 17.5989 13.3035 17.2071 13.0274 17C12.7512 16.793 12.3595 16.8489 12.1524 17.125L11.9024 17.4584C11.0274 18.625 9.27738 18.625 8.40238 17.4584L8.15238 17.125Z" fill="black"/>
<path d="M15.9857 5.01042C15.9857 5.93089 15.2394 6.67708 14.319 6.67708C13.3985 6.67708 12.6523 5.93089 12.6523 5.01042C12.6523 4.08994 13.3985 3.34375 14.319 3.34375C15.2394 3.34375 15.9857 4.08994 15.9857 5.01042Z" fill="#F6821F"/>
</svg>
