<svg width="67" height="67" viewBox="0 0 67 67" fill="none" xmlns="http://www.w3.org/2000/svg">
<path d="M33.4983 18.6436H33.4973C33.2488 18.6421 33.0124 18.524 32.866 18.3197C32.8659 18.3196 32.8658 18.3194 32.8656 18.3192L32.6956 18.085L33.4983 18.6436ZM33.4983 18.6436H33.4997C33.7481 18.6436 33.9842 18.5249 34.1315 18.3228L34.1316 18.3227M33.4983 18.6436L34.1316 18.3227M34.1316 18.3227L34.3035 18.0863L34.3036 18.0862M34.1316 18.3227L34.3036 18.0862M34.3036 18.0862C35.6203 16.2731 37.7458 15.19 39.9885 15.19H45.2525C45.684 15.19 46.0345 14.8411 46.0345 14.4079C46.0345 13.9761 45.6842 13.6258 45.2525 13.6258H39.9885C37.4953 13.6258 35.1217 14.7204 33.4997 16.5859C31.8787 14.7203 29.5051 13.6258 27.0119 13.6258H13.5348C12.088 13.6258 10.911 14.8029 10.911 16.2498V16.8557M34.3036 18.0862L10.911 16.8557M10.911 16.8557H7.0852C5.26777 16.8557 3.78994 18.335 3.78994 20.1522V53.0492C3.78994 54.8664 5.26777 56.3457 7.0852 56.3457H12.1404C12.5722 56.3457 12.9225 55.9953 12.9225 55.5636C12.9225 55.1318 12.5722 54.7815 12.1404 54.7815H7.0852C6.13141 54.7815 5.35409 54.0043 5.35409 53.0492V20.1522C5.35409 19.1971 6.13141 18.4199 7.0852 18.4199H10.911V30.2578C10.911 30.6896 11.2613 31.0399 11.6931 31.0399C12.1246 31.0399 12.4751 30.6896 12.4751 30.2578V16.2498C12.4751 15.6652 12.9514 15.19 13.5348 15.19H27.0119C29.2545 15.19 31.3788 16.2731 32.6956 18.0849L10.911 16.8557Z" fill="#004080" stroke="#004080" stroke-width="0.3"/>
<path d="M37.5057 56.9971L37.5056 56.9971C36.9051 58.679 35.2958 59.8102 33.4978 59.8102C31.7039 59.8102 30.0945 58.6791 29.494 56.9971C29.0196 55.667 27.6952 54.7814 26.2063 54.7814H17.5304C17.0972 54.7814 16.7483 55.1319 16.7483 55.5634C16.7483 55.995 17.0972 56.3455 17.5304 56.3455H26.2063C27.0493 56.3455 27.7731 56.8269 28.0219 57.5228C28.8448 59.8266 31.0442 61.3743 33.5017 61.3743C35.9554 61.3743 38.1549 59.8265 38.9776 57.5241C39.2279 56.8267 39.9517 56.3455 40.7934 56.3455H59.9137C61.7322 56.3455 63.21 54.8663 63.21 53.0491V20.1521C63.21 18.3349 61.7322 16.8556 59.9137 16.8556H56.0955V16.2496C56.0955 14.8028 54.9183 13.6257 53.4715 13.6257H50.8142C50.381 13.6257 50.0321 13.9762 50.0321 14.4077C50.0321 14.8408 50.3812 15.1898 50.8142 15.1898H53.4715C54.056 15.1898 54.5313 15.6662 54.5313 16.2496V48.2698H38.1651C36.1735 48.2698 34.4512 49.3575 33.503 50.9572C32.5558 49.3574 30.8324 48.2698 28.842 48.2698H12.4747V34.9831C12.4747 34.5501 12.1256 34.201 11.6926 34.201C11.2611 34.201 10.9105 34.5499 10.9105 34.9831V49.0518C10.9105 49.4835 11.2609 49.8339 11.6926 49.8339H28.842C30.9812 49.8339 32.7209 51.5791 32.7209 53.7241C32.7209 54.1559 33.0712 54.5062 33.5029 54.5062C33.9361 54.5062 34.285 54.1557 34.285 53.7241C34.285 51.5792 36.026 49.8339 38.1651 49.8339H55.3134C55.7466 49.8339 56.0955 49.4833 56.0955 49.0518V18.4198H59.9137C60.8686 18.4198 61.6459 19.197 61.6459 20.1521V53.0491C61.6459 54.0041 60.8686 54.7814 59.9137 54.7814H40.7934C39.3055 54.7814 37.9812 55.6671 37.5057 56.9971Z" fill="#004080" stroke="#004080" stroke-width="0.3"/>
<path d="M34.2855 45.8774C40.2 45.4902 44.9319 40.7609 45.3253 34.8488H46.7364C47.1682 34.8488 47.5185 34.4984 47.5185 34.0667C47.5185 33.6335 47.168 33.2846 46.7364 33.2846H45.3255C44.9407 27.3735 40.2048 22.6431 34.2855 22.256V20.8323C34.2855 20.4005 33.935 20.0502 33.5034 20.0502C33.0717 20.0502 32.7213 20.4006 32.7213 20.8323V22.256C26.8055 22.6456 22.0723 27.3748 21.6875 33.2846H20.2703C19.8387 33.2846 19.4882 33.6335 19.4882 34.0667C19.4882 34.4984 19.8385 34.8488 20.2703 34.8488H21.6876C22.0799 40.7584 26.8104 45.4877 32.7213 45.8773V47.2998C32.7213 47.7315 33.0717 48.0819 33.5034 48.0819C33.935 48.0819 34.2855 47.7316 34.2855 47.2998V45.8774ZM43.7593 34.8488C43.3725 39.8971 39.3362 43.9295 34.2855 44.3114V43.4138C34.2855 42.9806 33.9348 42.6318 33.5034 42.6318C33.0719 42.6318 32.7213 42.9806 32.7213 43.4138V44.3113C27.6742 43.9282 23.6405 39.8947 23.2537 34.8488H24.1562C24.5894 34.8488 24.9383 34.4982 24.9383 34.0667C24.9383 33.6337 24.5892 33.2846 24.1562 33.2846H23.2535C23.6331 28.2388 27.669 24.2051 32.7213 23.822V24.7195C32.7213 25.1513 33.0717 25.5016 33.5034 25.5016C33.935 25.5016 34.2855 25.1513 34.2855 24.7195V23.822C39.3414 24.2025 43.3799 28.2364 43.7596 33.2846H42.8504C42.4175 33.2846 42.0684 33.6337 42.0684 34.0667C42.0684 34.4982 42.4173 34.8488 42.8504 34.8488H43.7593Z" fill="#004080" stroke="#004080" stroke-width="0.3"/>
<path d="M33.5058 27.7229C30.0048 27.7229 27.1576 30.5659 27.1576 34.0621C27.1576 37.5633 30.0046 40.4103 33.5058 40.4103C37.0069 40.4103 39.8539 37.5633 39.8539 34.0621C39.8539 30.5659 37.0067 27.7229 33.5058 27.7229ZM33.5058 38.8461C30.8681 38.8461 28.7218 36.6998 28.7218 34.0621C28.7218 31.4298 30.8679 29.287 33.5058 29.287C36.1437 29.287 38.2898 31.4298 38.2898 34.0621C38.2898 36.6998 36.1434 38.8461 33.5058 38.8461Z" fill="#004080" stroke="#004080" stroke-width="0.3"/>
</svg>
