<svg width="67" height="67" viewBox="0 0 67 67" fill="none" xmlns="http://www.w3.org/2000/svg">
<path d="M64.7743 21.9208L38.0664 8.87384C35.764 7.72264 31.8499 7.72264 29.5475 8.87384L2.22566 21.9208C0.306987 22.8418 0 24.1465 0 24.8372C0 25.5279 0.306987 26.7559 2.22566 27.7536L4.45132 28.828V41.1075C3.06987 41.6447 2.07216 43.0262 2.07216 44.5611C2.07216 46.0961 3.06987 47.4775 4.37457 48.0147L0.920962 58.9895H10.5911L7.13746 48.0147C8.5189 47.4775 9.43986 46.0961 9.43986 44.5611C9.43986 42.9494 8.44215 41.6447 7.06071 41.1075V30.1327L11.1283 32.1281V48.0915C11.1283 48.3217 11.205 48.552 11.3585 48.7822C11.7423 49.2427 18.8797 58.9895 33.4616 58.9895C48.0435 58.9895 55.181 49.1659 55.488 48.7822C55.6415 48.552 55.7182 48.3217 55.7182 48.0915V32.2049L64.7743 27.7536C66.693 26.8326 67 25.5279 67 24.8372C66.9232 24.1465 66.693 22.8418 64.7743 21.9208ZM53.2623 47.7077C52.0344 49.2427 45.4341 56.6104 33.4616 56.6104C21.4891 56.6104 14.8889 49.2427 13.6609 47.7077V33.2026L29.5475 40.8005C30.6987 41.3378 32.2337 41.6447 33.7686 41.6447C35.3803 41.6447 36.9152 41.3378 38.0664 40.7238L53.2623 33.2793V47.7077ZM63.6999 25.6047L54.4903 30.1327C54.1065 30.1327 53.7995 30.2862 53.646 30.5932L36.992 38.6516C35.3803 39.4958 32.2337 39.4958 30.5452 38.6516L10.0538 28.828L33.6151 26.0651C34.3058 25.9884 34.7663 25.3744 34.6896 24.7604C34.6128 24.0697 33.9989 23.6092 33.3849 23.686L6.063 26.9093L3.30011 25.6047C2.60939 25.2977 2.4559 24.9139 2.4559 24.9139C2.4559 24.8372 2.60939 24.5302 3.30011 24.2232L30.622 11.0995C31.4662 10.7158 32.6174 10.4855 33.7686 10.4855C34.9966 10.4855 36.2245 10.7158 36.992 11.0995L63.6999 24.1465C64.3906 24.4534 64.5441 24.7604 64.5441 24.9139C64.5441 24.9139 64.3139 25.2977 63.6999 25.6047Z" fill="#004080"/>
</svg>
