<svg width="67" height="67" viewBox="0 0 67 67" fill="none" xmlns="http://www.w3.org/2000/svg">
<g clip-path="url(#clip0_1063_2965)">
<path d="M62.0606 15.7339L61.9709 15.834L62.0606 15.9341L66.5543 20.9495C66.8593 21.29 66.9356 21.7778 66.7493 22.1951C66.5628 22.6126 66.1485 22.8813 65.6914 22.8813H50.6427H50.4927V23.0312V34.8086V34.9586H50.6427H58.9283C59.3216 34.9586 59.688 35.1581 59.9014 35.4884L66.6644 45.9571C66.9116 46.34 66.9116 46.8319 66.6644 47.2147L59.9014 57.6835C59.6881 58.0136 59.3217 58.2133 58.9283 58.2133H1.30859C0.668831 58.2133 0.15 57.6945 0.15 57.0547V36.1172C0.15 35.4774 0.668831 34.9586 1.30859 34.9586H9.61214H9.76214V34.8086V30.1861V30.077L9.65839 30.0434C8.01149 29.5097 6.81781 27.9608 6.81781 26.1392C6.81781 23.8769 8.65845 22.0362 10.9207 22.0362C13.183 22.0362 15.0238 23.8769 15.0238 26.1392C15.0238 27.9608 13.83 29.5097 12.1831 30.0434L12.0793 30.077V30.1861V34.8086V34.9586H12.2293H28.8189H28.9689V34.8086V26.4239V26.3148L28.8651 26.2812C27.2182 25.7475 26.0246 24.1986 26.0246 22.377C26.0246 20.1147 27.8652 18.274 30.1275 18.274C32.3898 18.274 34.2304 20.1147 34.2304 22.377C34.2304 24.1986 33.0368 25.7474 31.3898 26.2812L31.2861 26.3148V26.4239V34.8086V34.9586H31.4361H48.0255H48.1755V34.8086V9.94531C48.1755 9.30555 48.6944 8.78672 49.3341 8.78672H65.6914C66.1484 8.78672 66.5628 9.05536 66.7493 9.47282C66.9356 9.89016 66.8593 10.3781 66.5543 10.7184L62.0606 15.7339ZM50.6427 11.1039H50.4927V11.2539V20.4141V20.5641H50.6427H62.7619H63.0977L62.8736 20.314L59.5524 16.6071C59.1582 16.1671 59.1582 15.5009 59.5524 15.0609L62.8736 11.354L63.0977 11.1039H62.7619H50.6427ZM22.7925 55.6647L22.643 55.8961H22.9184H39.0092H39.0909L39.1352 55.8275L45.0528 46.6673L45.1054 46.5859L45.0528 46.5045L39.1352 37.3444L39.0909 37.2758H39.0092H22.9184H22.643L22.7925 37.5072L28.2512 45.9571C28.4985 46.34 28.4985 46.8319 28.2513 47.2147L22.7925 55.6647ZM2.61719 37.2758H2.46719V37.4258V55.7461V55.8961H2.61719H19.8027H19.8844L19.9287 55.8275L25.8463 46.6673L25.8989 46.5859L25.8463 46.5045L19.9287 37.3444L19.8844 37.2758H19.8027H2.61719ZM64.2594 46.6673L64.312 46.5859L64.2594 46.5045L58.3418 37.3444L58.2975 37.2758H58.2158H42.1249H41.8495L41.9989 37.5072L47.4579 45.9571C47.7051 46.34 47.7051 46.8319 47.4579 47.2147L41.9991 55.6647L41.8496 55.8961H42.1251H58.2158H58.2975L58.3418 55.8275L64.2594 46.6673ZM31.9132 22.377C31.9132 21.3921 31.1123 20.5912 30.1275 20.5912C29.1426 20.5912 28.3417 21.3921 28.3417 22.377C28.3417 23.3618 29.1426 24.1627 30.1275 24.1627C31.1123 24.1627 31.9132 23.3618 31.9132 22.377ZM12.7066 26.1392C12.7066 25.1543 11.9056 24.3534 10.9207 24.3534C9.93602 24.3534 9.135 25.1543 9.135 26.1392C9.135 27.124 9.93588 27.9249 10.9207 27.9249C11.9056 27.9249 12.7066 27.124 12.7066 26.1392Z" fill="#004080" stroke="white" stroke-width="0.3"/>
</g>
<defs>
<clipPath id="clip0_1063_2965">
<rect width="67" height="67" fill="white"/>
</clipPath>
</defs>
</svg>
