<svg width="67" height="67" viewBox="0 0 67 67" fill="none" xmlns="http://www.w3.org/2000/svg">
<g clip-path="url(#clip0_1063_2974)">
<path d="M50.5591 7.32276C50.9896 7.32276 51.3846 7.03722 51.5046 6.60225C51.6488 6.07973 51.3422 5.53928 50.8196 5.39507C49.1573 4.93628 47.2132 4.65126 45.0413 4.54815C44.4981 4.52106 44.0401 4.94046 44.0143 5.48196C43.9887 6.02346 44.4068 6.48317 44.9481 6.50894C48.7111 6.68744 50.1426 7.32276 50.5591 7.32276Z" fill="#004080"/>
<path d="M44.9481 10.3907C48.7111 10.5694 50.1426 11.2047 50.5591 11.2047C50.9896 11.2047 51.3846 10.9191 51.5046 10.4842C51.6488 9.96164 51.3422 9.42119 50.8196 9.27699C49.1573 8.81819 47.2132 8.53318 45.0413 8.43007C44.4981 8.40416 44.0401 8.82251 44.0143 9.36388C43.9887 9.90524 44.4068 10.365 44.9481 10.3907Z" fill="#004080"/>
<path d="M44.9481 14.6684C48.7116 14.8473 50.1424 15.4824 50.5591 15.4824C50.9896 15.4824 51.3846 15.1968 51.5046 14.7619C51.6488 14.2393 51.3422 13.6989 50.8196 13.5547C49.1577 13.096 47.2136 12.811 45.0413 12.7078C44.4981 12.6817 44.0401 13.1002 44.0143 13.6416C43.9887 14.1829 44.4066 14.6428 44.9481 14.6684Z" fill="#004080"/>
<path d="M62.7339 4.54814C60.5619 4.65139 58.6178 4.93627 56.9554 5.39507C56.4329 5.53927 56.1263 6.07972 56.2705 6.60224C56.3905 7.03735 56.7856 7.32275 57.2159 7.32275C57.6397 7.32275 59.0774 6.68678 62.8269 6.50881C63.3683 6.48303 63.7864 6.02332 63.7607 5.48182C63.7351 4.94046 63.2757 4.52407 62.7339 4.54814Z" fill="#004080"/>
<path d="M62.7339 8.42995C60.5619 8.5332 58.6178 8.81808 56.9554 9.27687C56.4329 9.42108 56.1263 9.96153 56.2705 10.484C56.3905 10.9192 56.7856 11.2046 57.2159 11.2046C57.6397 11.2046 59.0774 10.5686 62.8269 10.3906C63.3683 10.3648 63.7864 9.90513 63.7607 9.36363C63.7351 8.8224 63.2757 8.40548 62.7339 8.42995Z" fill="#004080"/>
<path d="M59.6092 13.0052C58.6597 13.1458 57.7668 13.3306 56.9555 13.5545C56.433 13.6987 56.1264 14.2392 56.2704 14.7617C56.3906 15.1968 56.7855 15.4823 57.216 15.4823C57.564 15.4823 57.9741 15.2317 59.8969 14.9469C60.4331 14.8674 60.8034 14.3685 60.724 13.8322C60.6444 13.2961 60.1462 12.9257 59.6092 13.0052Z" fill="#004080"/>
<path d="M47.4854 61.2257V54.2381C47.4854 50.6176 46.2696 47.0716 44.0548 44.212V40.731C44.0548 38.8531 42.5269 37.325 40.6488 37.325H31.3994C29.9343 36.2757 30.1476 34.6741 30.1293 34.5916C30.7106 34.2437 31.2705 33.8363 31.806 33.3655C33.5525 31.8304 34.6611 29.6368 34.9258 27.242C36.2374 27.0888 37.2566 25.9599 37.2509 24.6006L37.2432 21.0447C37.2419 20.7502 37.1909 20.4592 37.0947 20.183C37.191 19.9091 37.2444 19.617 37.2444 19.3155V13.0472C37.2444 11.3254 35.8438 9.90187 34.1222 9.87387C33.9499 9.87112 33.8127 9.73385 33.81 9.56151C33.7828 7.81767 32.3419 6.3989 30.5978 6.3989H20.7002C16.1966 6.3989 12.5326 10.063 12.5326 14.5666V19.3156C12.5326 19.4604 12.5451 19.603 12.5682 19.7425C12.094 20.3328 11.8302 21.0688 11.8307 21.8412L11.8323 23.991C11.8336 25.7361 13.1752 27.1733 14.8808 27.327C15.1654 29.7196 16.2922 31.904 18.0516 33.4242C18.3449 33.6777 18.6457 33.9106 18.9523 34.1277C18.9068 34.377 19.274 36.1848 17.6822 37.3252H8.43269C6.55473 37.3252 5.02668 38.8531 5.02668 40.7312V44.2122C2.81189 47.0716 1.59607 50.6178 1.59607 54.2382V61.2257C0.654541 61.7542 0.0166016 62.7619 0.0166016 63.9163C0.0167324 65.6167 1.40005 67 3.10043 67H45.9811C47.6815 67 49.0648 65.6166 49.0648 63.9162C49.0649 62.7619 48.427 61.7542 47.4854 61.2257ZM44.0548 47.915C45.0108 49.8739 45.5226 52.0399 45.5226 54.2381V60.8325H44.0548V47.915ZM14.4954 14.5665C14.4954 11.1452 17.2788 8.36166 20.7002 8.36166H30.5978C31.2763 8.36166 31.8369 8.91349 31.8474 9.59186C31.8667 10.8303 32.852 11.8162 34.0903 11.8364C34.7471 11.8471 35.2815 12.3902 35.2815 13.0471V19.3156C35.2815 20.1567 33.8967 20.281 33.4374 19.3693C33.4365 19.3676 33.4357 19.3659 33.4348 19.364C32.9899 18.4718 31.9972 18.0134 31.0205 18.2494C26.8916 19.2469 23.8426 16.6772 22.3928 15.0567C20.4542 12.8899 16.8098 14.1052 16.6675 17.0239C16.6589 17.2023 16.6641 17.0651 16.6666 20.539L14.9369 19.9368C14.6729 19.8448 14.4954 19.5953 14.4954 19.3155V14.5665ZM16.7751 26.3339C16.7616 25.8017 16.3263 25.3774 15.7941 25.3774C15.7939 25.3774 15.7938 25.3774 15.7937 25.3774L15.1849 25.3777C15.1846 25.3777 15.1845 25.3777 15.1842 25.3777C14.4187 25.3777 13.7957 24.7551 13.7952 23.9895C13.8036 21.758 13.7719 21.8207 13.8212 21.5702C14.2164 21.8039 14.3528 21.795 16.0618 22.4069C17.3071 22.8405 18.6319 21.9187 18.6298 20.5792C18.6276 18.219 18.6244 17.2002 18.6283 17.119C18.6845 15.9677 20.1535 15.4975 20.93 16.3657C22.3947 18.003 25.2343 20.4425 29.1456 20.4423C29.8866 20.4423 30.6662 20.3548 31.4817 20.1577C31.5625 20.1381 31.6426 20.1713 31.6774 20.2382C31.6779 20.2392 31.6784 20.2403 31.6789 20.2413C32.3436 21.5739 33.8639 22.2389 35.2823 21.8512L35.2883 24.6072C35.2899 24.986 34.9919 25.2956 34.6241 25.2972L34.0007 25.2998C33.4667 25.3021 33.0327 25.7307 33.0235 26.2645C32.986 28.4698 32.07 30.5207 30.5104 31.8916C27.1678 34.8298 22.6402 34.7954 19.3351 31.9392C17.7641 30.5817 16.8311 28.5387 16.7751 26.3339ZM28.821 37.3252H20.2607C20.6234 36.6871 20.8458 35.9702 20.9008 35.2258C23.1582 36.1945 25.7133 36.3525 28.2074 35.491C28.2909 36.1402 28.5015 36.7632 28.821 37.3252ZM3.5591 54.2382C3.5591 52.04 4.07089 49.8742 5.02681 47.9151V52.684C5.02681 53.226 5.46624 53.6654 6.00826 53.6654C6.55028 53.6654 6.98971 53.226 6.98971 52.684V40.7312C6.98971 39.9354 7.63707 39.288 8.43282 39.288H40.649C41.4447 39.288 42.0921 39.9354 42.0921 40.7312V60.8326H6.98971V57.2735C6.98971 56.7315 6.55028 56.292 6.00826 56.292C5.46624 56.292 5.02681 56.7315 5.02681 57.2735V60.8326H3.5591V54.2382ZM45.9811 65.0371H3.10043C2.48238 65.0371 1.97962 64.5342 1.97962 63.9162C1.97962 63.2888 2.49534 62.7954 3.10043 62.7954H45.9811C46.5849 62.7954 47.1019 63.2877 47.1019 63.9163C47.102 64.5344 46.5993 65.0371 45.9811 65.0371Z" fill="#004080"/>
<path d="M24.5409 55.96C27.3463 55.96 29.6287 53.6777 29.6287 50.8724C29.6287 48.067 27.3464 45.7845 24.5409 45.7845C21.7354 45.7845 19.4531 48.0669 19.4531 50.8724C19.4531 53.6777 21.7356 55.96 24.5409 55.96ZM24.5409 47.7474C26.264 47.7474 27.6659 49.1492 27.6659 50.8724C27.6659 52.5954 26.2641 53.9971 24.5409 53.9971C22.8179 53.9971 21.416 52.5954 21.416 50.8724C21.416 49.1493 22.8179 47.7474 24.5409 47.7474Z" fill="#004080"/>
<path d="M65.0046 0.00456856C58.5159 -0.0942303 55.0981 1.44638 53.9299 2.11284C53.9226 2.11703 53.9136 2.11873 53.9039 2.11808H53.9038C53.8941 2.11742 53.884 2.11428 53.8744 2.10879C52.7063 1.44363 49.2902 -0.0938377 42.8074 0.00443771C41.7158 0.020926 40.8276 0.923201 40.8276 2.01575V5.5284C40.8276 6.07042 41.2671 6.50985 41.8091 6.50985C42.3511 6.50985 42.7905 6.07042 42.7905 5.5284V2.01575C42.7905 1.98879 42.8109 1.96746 42.837 1.96707C44.8355 1.93736 49.8166 2.05697 52.9031 3.81454C52.91 3.81846 52.9172 3.82174 52.9241 3.82566V19.3485C52.9155 19.3448 52.9065 19.3423 52.8978 19.3385C49.5596 17.8578 45.1621 17.6914 42.8378 17.7246C42.8094 17.7238 42.7905 17.7021 42.7905 17.676V10.1178C42.7905 9.57575 42.3511 9.13633 41.8091 9.13633C41.2671 9.13633 40.8276 9.57575 40.8276 10.1178V17.676C40.8276 18.8176 41.7685 19.7082 42.8655 19.6871C44.6079 19.6632 48.9943 19.7543 52.102 21.1327C53.2482 21.6411 54.5776 21.6295 55.7448 21.117C58.8126 19.7701 63.1257 19.6682 64.8384 19.6858C66.0318 19.6921 66.9835 18.7411 66.9835 17.5652V2.01575C66.9835 0.923201 66.0957 0.020926 65.0046 0.00456856ZM65.0207 17.5654C65.0207 17.6485 64.9593 17.7177 64.8593 17.7232C62.5746 17.6986 58.25 17.8734 54.9557 19.3199C54.9331 19.3299 54.9098 19.3368 54.887 19.3461V3.82592C54.8921 3.82305 54.8975 3.82069 54.9026 3.81768C57.9888 2.05697 62.9741 1.93762 64.975 1.9672C65.0001 1.96759 65.0207 1.98931 65.0207 2.01588V17.5654Z" fill="#004080"/>
</g>
<defs>
<clipPath id="clip0_1063_2974">
<rect width="67" height="67" fill="white"/>
</clipPath>
</defs>
</svg>
