<svg width="21" height="21" viewBox="0 0 21 21" fill="none" xmlns="http://www.w3.org/2000/svg">
<g clip-path="url(#clip0_2342_11121)">
<path d="M17.9246 3.07535C15.9413 1.09216 13.3046 0 10.4999 0C10.4998 0 10.5 0 10.4998 0C7.69543 0 5.05846 1.09229 3.07535 3.07535C1.09221 5.05854 0 7.69531 0 10.5C8.20313e-05 12.2854 0.454453 14.0401 1.31627 15.5922L0.0227227 20.2191C-0.0370781 20.433 0.0231328 20.6626 0.180223 20.8197C0.337312 20.9768 0.566836 21.037 0.780938 20.9772L5.40795 19.6836C6.95982 20.5456 8.71451 21 10.5 21C13.3046 21 15.9414 19.9078 17.9246 17.9246C19.9079 15.9414 21 13.3046 21 10.5C20.9999 7.69527 19.9077 5.05854 17.9246 3.07535ZM10.4999 19.7695C8.8451 19.7695 7.22076 19.3277 5.80236 18.4919C5.70683 18.4355 5.59888 18.4067 5.49002 18.4067C5.43449 18.4067 5.37879 18.4142 5.32436 18.4294L1.50195 19.498L2.57057 15.6757C2.61565 15.5145 2.59309 15.342 2.50815 15.1978C1.67233 13.7792 1.23055 12.1547 1.23047 10.5C1.23047 8.02397 2.19466 5.69621 3.94546 3.94542C5.69625 2.19462 8.02401 1.23047 10.4999 1.23047C15.611 1.23047 19.7694 5.38876 19.7695 10.5C19.7695 15.6112 15.6112 19.7695 10.4999 19.7695Z" fill="black"/>
<path d="M15.0332 11.2864C14.6571 10.9103 14.1556 10.7032 13.6211 10.7032C13.0866 10.7032 12.5851 10.9103 12.2091 11.2864L11.9239 11.5716C11.8536 11.6419 11.759 11.6806 11.6577 11.6806C11.5564 11.6806 11.4619 11.6419 11.3914 11.5714L9.42785 9.60792C9.35751 9.53762 9.31879 9.44304 9.31875 9.34169C9.31875 9.24034 9.35742 9.14584 9.42768 9.07558L9.71299 8.79032C10.4916 8.01172 10.4916 6.74483 9.71303 5.96623L9.14246 5.3955C8.76631 5.01951 8.26485 4.8125 7.73037 4.8125C7.1959 4.8125 6.69444 5.01955 6.31833 5.39566L5.89292 5.82116C4.99348 6.72059 4.667 8.05999 4.97351 9.59275C5.26197 11.035 6.08651 12.4951 7.29528 13.704C8.81856 15.2271 10.7586 16.1365 12.485 16.1366H12.4853C13.5731 16.1366 14.5044 15.7804 15.1782 15.1066L15.6037 14.6811C16.3823 13.9025 16.3823 12.6356 15.6037 11.8569L15.0332 11.2864ZM14.7336 13.8111L14.3082 14.2365C13.87 14.6746 13.2398 14.9062 12.4854 14.9062H12.4852C11.0778 14.9061 9.46296 14.1314 8.16543 12.834C7.1265 11.795 6.42144 10.5582 6.18015 9.35145C5.9569 8.23513 6.16391 7.29042 6.76306 6.69122L7.18844 6.26577C7.33211 6.12213 7.52456 6.04301 7.73042 6.04301C7.93636 6.04301 8.12888 6.12213 8.27248 6.26568L8.84296 6.83629C9.1418 7.13517 9.1418 7.62141 8.84301 7.92025L8.5577 8.20552C8.25496 8.50821 8.08828 8.91181 8.08832 9.3419C8.08836 9.7719 8.25513 10.1755 8.55782 10.4781L10.5214 12.4416C10.8241 12.7444 11.2277 12.9112 11.6578 12.9112C12.0878 12.9112 12.4913 12.7445 12.794 12.4418L13.0792 12.1566C13.2229 12.0129 13.4153 11.9338 13.6211 11.9338C13.827 11.9338 14.0194 12.0129 14.1631 12.1566L14.7336 12.7271C15.0325 13.0259 15.0325 13.5122 14.7336 13.8111Z" fill="black"/>
</g>
<defs>
<clipPath id="clip0_2342_11121">
<rect width="21" height="21" fill="white"/>
</clipPath>
</defs>
</svg>
